<?xml version="1.0" encoding="UTF-8"?>
<!DOCTYPE svg PUBLIC "-//W3C//DTD SVG 1.1//EN" "http://www.w3.org/Graphics/SVG/1.1/DTD/svg11.dtd">
<svg xmlns="http://www.w3.org/2000/svg" version="1.1" width="512px" height="512px" style="shape-rendering:geometricPrecision; text-rendering:geometricPrecision; image-rendering:optimizeQuality; fill-rule:evenodd; clip-rule:evenodd" xmlns:xlink="http://www.w3.org/1999/xlink">
<g><path style="opacity:1" fill="#020101" d="M -0.5,-0.5 C 170.167,-0.5 340.833,-0.5 511.5,-0.5C 511.5,170.167 511.5,340.833 511.5,511.5C 340.833,511.5 170.167,511.5 -0.5,511.5C -0.5,340.833 -0.5,170.167 -0.5,-0.5 Z"/></g>
<g><path style="opacity:1" fill="#9b7a35" d="M 270.5,74.5 C 265.805,77.3341 262.972,81.3341 262,86.5C 263.812,83.7198 265.979,81.2198 268.5,79C 269.793,78.51 271.127,78.3433 272.5,78.5C 273.434,79.5676 273.768,80.901 273.5,82.5C 266.911,84.5881 262.411,88.9214 260,95.5C 259.333,105.167 259.333,114.833 260,124.5C 260.692,125.025 261.192,125.692 261.5,126.5C 259.955,127.452 258.288,127.785 256.5,127.5C 258.468,117.268 258.968,106.935 258,96.5C 256.104,89.772 251.937,85.1054 245.5,82.5C 244.566,81.4324 244.232,80.099 244.5,78.5C 249.029,78.4961 252.529,80.4961 255,84.5C 254.353,80.8076 252.353,77.8076 249,75.5C 248.51,74.2068 248.343,72.8734 248.5,71.5C 253.589,72.7656 256.422,76.0989 257,81.5C 257.496,76.4899 255.996,72.1565 252.5,68.5C 252.977,67.5224 253.643,66.6891 254.5,66C 256.833,65.3333 259.167,65.3333 261.5,66C 263.286,66.1962 264.619,67.0295 265.5,68.5C 262.506,71.9871 261.006,75.9871 261,80.5C 262.163,75.1643 265.33,72.1643 270.5,71.5C 270.5,72.5 270.5,73.5 270.5,74.5 Z"/></g>
<g><path style="opacity:1" fill="#28190e" d="M 270.5,74.5 C 270.586,75.4959 270.252,76.3292 269.5,77C 270.737,77.2321 271.737,77.7321 272.5,78.5C 271.127,78.3433 269.793,78.51 268.5,79C 265.979,81.2198 263.812,83.7198 262,86.5C 262.972,81.3341 265.805,77.3341 270.5,74.5 Z"/></g>
<g><path style="opacity:1" fill="#17110b" d="M 245.5,82.5 C 251.937,85.1054 256.104,89.772 258,96.5C 258.968,106.935 258.468,117.268 256.5,127.5C 258.288,127.785 259.955,127.452 261.5,126.5C 261.192,125.692 260.692,125.025 260,124.5C 259.333,114.833 259.333,105.167 260,95.5C 262.411,88.9214 266.911,84.5881 273.5,82.5C 274.167,83.1667 274.833,83.8333 275.5,84.5C 269.864,84.8122 267.531,87.8122 268.5,93.5C 270.167,93.5 271.833,93.5 273.5,93.5C 273.326,91.139 272.993,88.8056 272.5,86.5C 276.225,86.7796 277.392,88.7796 276,92.5C 270.939,97.6267 266.606,103.293 263,109.5C 261.834,115.247 262.668,120.581 265.5,125.5C 263.614,127.241 261.28,128.241 258.5,128.5C 255.381,128.343 252.381,127.676 249.5,126.5C 249.624,125.893 249.957,125.56 250.5,125.5C 251.077,126.773 251.743,126.773 252.5,125.5C 257.561,118.927 257.727,112.26 253,105.5C 249.333,101.167 245.667,96.8333 242,92.5C 241.333,90.8333 241.333,89.1667 242,87.5C 246.574,86.3072 247.407,87.6406 244.5,91.5C 244.747,94.0815 246.08,94.9149 248.5,94C 250.787,88.1211 248.787,84.9545 242.5,84.5C 243.5,83.8333 244.5,83.1667 245.5,82.5 Z"/></g>
<g><path style="opacity:1" fill="#96793a" d="M 220.5,98.5 C 219.5,98.5 218.5,98.5 217.5,98.5C 217.5,97.1667 217.5,95.8333 217.5,94.5C 215.167,94.5 212.833,94.5 210.5,94.5C 214.072,91.7024 218.072,91.0358 222.5,92.5C 221.5,94.1667 220.167,95.5 218.5,96.5C 219.243,97.1818 219.909,97.8485 220.5,98.5 Z"/></g>
<g><path style="opacity:1" fill="#aa8436" d="M 210.5,94.5 C 212.833,94.5 215.167,94.5 217.5,94.5C 217.5,95.8333 217.5,97.1667 217.5,98.5C 218.5,98.5 219.5,98.5 220.5,98.5C 229.1,104.693 228.1,106.693 217.5,104.5C 215.696,103.838 213.696,103.505 211.5,103.5C 208.473,103.287 205.807,103.953 203.5,105.5C 202.448,105.351 201.448,105.517 200.5,106C 195.692,109.308 191.025,112.808 186.5,116.5C 186.167,116.167 185.833,115.833 185.5,115.5C 189.081,108.67 192.914,102.003 197,95.5C 201.589,89.7812 207.423,87.2812 214.5,88C 212.65,90.0176 210.65,91.8509 208.5,93.5C 208.957,94.2975 209.624,94.6309 210.5,94.5 Z"/></g>
<g><path style="opacity:1" fill="#ab8536" d="M 326.5,105.5 C 326.449,107.57 327.115,109.403 328.5,111C 328.167,111.5 327.833,112 327.5,112.5C 326.378,111.37 325.044,110.703 323.5,110.5C 313.532,102.896 302.699,101.563 291,106.5C 290.536,105.906 290.369,105.239 290.5,104.5C 293.019,101.553 296.019,99.0526 299.5,97C 297.981,95.6487 296.648,94.1487 295.5,92.5C 296.5,92.1667 297.5,91.8333 298.5,91.5C 302.232,92.4759 305.898,93.3092 309.5,94C 307.5,92 305.5,90 303.5,88C 315.268,88.2503 322.935,94.0837 326.5,105.5 Z"/></g>
<g><path style="opacity:1" fill="#9e7f42" d="M 242.5,84.5 C 248.787,84.9545 250.787,88.1211 248.5,94C 246.08,94.9149 244.747,94.0815 244.5,91.5C 247.407,87.6406 246.574,86.3072 242,87.5C 241.333,89.1667 241.333,90.8333 242,92.5C 245.667,96.8333 249.333,101.167 253,105.5C 257.727,112.26 257.561,118.927 252.5,125.5C 251.743,126.773 251.077,126.773 250.5,125.5C 254.304,119.684 254.47,113.684 251,107.5C 244.306,101.871 237.973,102.204 232,108.5C 230.786,113.343 231.953,117.51 235.5,121C 239.376,122.205 242.376,121.205 244.5,118C 244.355,117.228 244.022,116.561 243.5,116C 238.956,115.978 237.456,113.812 239,109.5C 244.135,107.621 246.968,109.454 247.5,115C 246.603,122.634 242.27,125.634 234.5,124C 226.689,116.154 226.689,108.487 234.5,101C 237.121,100.061 239.788,99.2281 242.5,98.5C 238.911,95.2292 237.744,91.2292 239,86.5C 239.816,85.1772 240.983,84.5106 242.5,84.5 Z"/></g>
<g><path style="opacity:1" fill="#362917" d="M 217.5,104.5 C 212.797,104.437 208.13,104.771 203.5,105.5C 205.807,103.953 208.473,103.287 211.5,103.5C 213.696,103.505 215.696,103.838 217.5,104.5 Z"/></g>
<g><path style="opacity:1" fill="#9b7e40" d="M 275.5,84.5 C 278.269,85.7714 279.602,87.9381 279.5,91C 278.825,93.8438 277.492,96.3438 275.5,98.5C 278.144,99.3958 280.81,100.229 283.5,101C 285.37,103.04 287.37,104.873 289.5,106.5C 289.882,111.367 289.215,116.034 287.5,120.5C 281.571,126.15 276.071,125.816 271,119.5C 268.681,112.185 271.181,108.685 278.5,109C 280.228,113.001 278.894,115.334 274.5,116C 273.14,117.938 273.473,119.604 275.5,121C 280.768,122.45 284.268,120.617 286,115.5C 287.673,109.505 285.507,105.672 279.5,104C 268.278,102.894 263.444,108.061 265,119.5C 265.131,122.371 266.297,124.705 268.5,126.5C 267.14,127.665 266.14,127.332 265.5,125.5C 262.668,120.581 261.834,115.247 263,109.5C 266.606,103.293 270.939,97.6267 276,92.5C 277.392,88.7796 276.225,86.7796 272.5,86.5C 272.993,88.8056 273.326,91.139 273.5,93.5C 271.833,93.5 270.167,93.5 268.5,93.5C 267.531,87.8122 269.864,84.8122 275.5,84.5 Z"/></g>
<g><path style="opacity:1" fill="#100b08" d="M 323.5,110.5 C 325.74,112.966 328.407,114.966 331.5,116.5C 332.107,116.376 332.44,116.043 332.5,115.5C 333.043,115.56 333.376,115.893 333.5,116.5C 331.473,118.674 329.14,119.008 326.5,117.5C 326.083,120.079 326.75,122.246 328.5,124C 327.434,125.159 327.767,125.992 329.5,126.5C 328.326,128.368 328.993,129.368 331.5,129.5C 334.672,131.252 337.672,133.252 340.5,135.5C 337.082,135.884 335.748,137.551 336.5,140.5C 335.959,142.535 335.292,144.535 334.5,146.5C 333.548,144.955 333.215,143.288 333.5,141.5C 334.097,141.265 334.43,140.765 334.5,140C 333.711,138.374 332.711,136.874 331.5,135.5C 327.737,132.952 323.737,130.952 319.5,129.5C 325.834,125.989 326.834,121.489 322.5,116C 319.364,114.959 316.864,115.793 315,118.5C 313.711,121.351 313.211,124.351 313.5,127.5C 312.022,127.762 310.689,127.429 309.5,126.5C 312.146,123.628 312.979,120.295 312,116.5C 307.694,112.325 303.694,112.658 300,117.5C 299.202,120.711 299.702,123.711 301.5,126.5C 293.994,129.002 290.494,126.336 291,118.5C 289.681,120.25 289.181,122.25 289.5,124.5C 288.833,123.167 288.167,121.833 287.5,120.5C 289.215,116.034 289.882,111.367 289.5,106.5C 289.328,105.508 289.662,104.842 290.5,104.5C 290.369,105.239 290.536,105.906 291,106.5C 302.699,101.563 313.532,102.896 323.5,110.5 Z"/></g>
<g><path style="opacity:1" fill="#947841" d="M 326.5,105.5 C 328.988,108.466 330.988,111.799 332.5,115.5C 332.44,116.043 332.107,116.376 331.5,116.5C 328.407,114.966 325.74,112.966 323.5,110.5C 325.044,110.703 326.378,111.37 327.5,112.5C 327.833,112 328.167,111.5 328.5,111C 327.115,109.403 326.449,107.57 326.5,105.5 Z"/></g>
<g><path style="opacity:1" fill="#9c7f46" d="M 215.5,130.5 C 223.5,129.833 223.5,129.167 215.5,128.5C 215.715,126.821 215.048,125.821 213.5,125.5C 211.972,126.309 210.306,126.976 208.5,127.5C 206.756,120.768 205.756,120.435 205.5,126.5C 204.5,125.167 203.5,125.167 202.5,126.5C 201.737,127.268 200.737,127.768 199.5,128C 200.126,128.75 200.626,129.584 201,130.5C 204.057,129.549 207.223,129.216 210.5,129.5C 203.245,131.597 195.912,134.097 188.5,137C 186.877,139.08 185.377,141.246 184,143.5C 183.441,139.447 184.941,136.28 188.5,134C 191.801,132.401 195.135,130.901 198.5,129.5C 193.294,125.862 192.294,121.362 195.5,116C 200.12,114.462 203.287,115.962 205,120.5C 205.953,114.213 209.453,112.046 215.5,114C 219.122,118.002 219.456,122.335 216.5,127C 225.89,128.624 229.056,125.124 226,116.5C 231.333,122.83 230.166,127.664 222.5,131C 219.961,131.796 217.628,131.629 215.5,130.5 Z"/></g>
<g><path style="opacity:1" fill="#211207" d="M 208.5,127.5 C 207.209,127.737 206.209,127.404 205.5,126.5C 205.756,120.435 206.756,120.768 208.5,127.5 Z"/></g>
<g><path style="opacity:1" fill="#1b130c" d="M 202.5,126.5 C 197.719,125.909 196.053,123.409 197.5,119C 201.578,119.617 203.245,122.117 202.5,126.5 Z"/></g>
<g><path style="opacity:1" fill="#120a05" d="M 213.5,125.5 C 209.949,123.996 208.782,121.33 210,117.5C 213.282,116.089 215.116,117.255 215.5,121C 215.481,122.833 214.815,124.333 213.5,125.5 Z"/></g>
<g><path style="opacity:1" fill="#957c48" d="M 186.5,129.5 C 183.663,127.598 180.329,126.931 176.5,127.5C 176.719,126.325 176.386,125.325 175.5,124.5C 174.358,125.826 173.024,126.826 171.5,127.5C 172.734,124.593 174.734,122.259 177.5,120.5C 178.76,122.353 178.76,124.186 177.5,126C 181.951,126.13 186.284,126.796 190.5,128C 189.255,128.791 187.922,129.291 186.5,129.5 Z"/></g>
<g><path style="opacity:1" fill="#bb9545" d="M 205.5,126.5 C 206.209,127.404 207.209,127.737 208.5,127.5C 210.306,126.976 211.972,126.309 213.5,125.5C 215.048,125.821 215.715,126.821 215.5,128.5C 223.5,129.167 223.5,129.833 215.5,130.5C 213.958,129.699 212.292,129.366 210.5,129.5C 207.223,129.216 204.057,129.549 201,130.5C 200.626,129.584 200.126,128.75 199.5,128C 200.737,127.768 201.737,127.268 202.5,126.5C 203.5,125.167 204.5,125.167 205.5,126.5 Z"/></g>
<g><path style="opacity:1" fill="#8f7444" d="M 340.5,123.5 C 341.434,124.568 341.768,125.901 341.5,127.5C 337.818,127.335 334.152,127.501 330.5,128C 331.056,128.383 331.389,128.883 331.5,129.5C 328.993,129.368 328.326,128.368 329.5,126.5C 333.167,126.5 336.833,126.5 340.5,126.5C 340.5,125.5 340.5,124.5 340.5,123.5 Z"/></g>
<g><path style="opacity:1" fill="#997b43" d="M 352.5,124.5 C 351.523,127.287 351.19,130.287 351.5,133.5C 350.178,133.67 349.011,133.337 348,132.5C 347.616,129.94 346.783,127.606 345.5,125.5C 347.708,126.894 349.208,128.894 350,131.5C 350.66,128.953 350.493,126.453 349.5,124C 350.632,122.209 351.632,122.375 352.5,124.5 Z"/></g>
<g><path style="opacity:1" fill="#a68849" d="M 333.5,141.5 C 332.375,139.871 331.041,138.371 329.5,137C 321.817,133.726 313.984,131.226 306,129.5C 298.652,133.349 293.152,131.682 289.5,124.5C 289.181,122.25 289.681,120.25 291,118.5C 290.494,126.336 293.994,129.002 301.5,126.5C 299.702,123.711 299.202,120.711 300,117.5C 303.694,112.658 307.694,112.325 312,116.5C 312.979,120.295 312.146,123.628 309.5,126.5C 310.689,127.429 312.022,127.762 313.5,127.5C 313.211,124.351 313.711,121.351 315,118.5C 316.864,115.793 319.364,114.959 322.5,116C 326.834,121.489 325.834,125.989 319.5,129.5C 323.737,130.952 327.737,132.952 331.5,135.5C 332.711,136.874 333.711,138.374 334.5,140C 334.43,140.765 334.097,141.265 333.5,141.5 Z"/></g>
<g><path style="opacity:1" fill="#1a120b" d="M 318.5,118.5 C 322.071,118.408 323.238,120.074 322,123.5C 319.469,126.827 317.635,126.827 316.5,123.5C 316.437,121.486 317.103,119.819 318.5,118.5 Z"/></g>
<g><path style="opacity:1" fill="#17100a" d="M 304.5,116.5 C 309.068,116.083 310.568,118.083 309,122.5C 305.563,126.711 303.396,126.044 302.5,120.5C 302.752,118.927 303.418,117.594 304.5,116.5 Z"/></g>
<g><path style="opacity:1" fill="#b99443" d="M 171.5,127.5 C 173.024,126.826 174.358,125.826 175.5,124.5C 176.386,125.325 176.719,126.325 176.5,127.5C 180.329,126.931 183.663,127.598 186.5,129.5C 179.674,132.484 174.174,137.15 170,143.5C 168.306,149.953 166.473,156.287 164.5,162.5C 160.899,152.451 159.732,142.118 161,131.5C 167.326,118.835 169.659,119.501 168,133.5C 168.716,131.121 169.883,129.121 171.5,127.5 Z"/></g>
<g><path style="opacity:1" fill="#8f7646" d="M 152.5,143.5 C 152.806,140.615 152.473,137.948 151.5,135.5C 151.201,133.396 151.534,131.396 152.5,129.5C 153.812,134.318 153.812,138.985 152.5,143.5 Z"/></g>
<g><path style="opacity:1" fill="#bd9644" d="M 345.5,125.5 C 346.783,127.606 347.616,129.94 348,132.5C 349.011,133.337 350.178,133.67 351.5,133.5C 351.19,130.287 351.523,127.287 352.5,124.5C 356.989,128.349 358.656,133.349 357.5,139.5C 357.616,147.036 356.45,154.369 354,161.5C 351.629,155.337 349.629,149.004 348,142.5C 345.63,139.961 343.13,137.628 340.5,135.5C 337.672,133.252 334.672,131.252 331.5,129.5C 331.389,128.883 331.056,128.383 330.5,128C 334.152,127.501 337.818,127.335 341.5,127.5C 341.768,125.901 341.434,124.568 340.5,123.5C 340.351,122.448 340.517,121.448 341,120.5C 342.707,122.037 344.207,123.704 345.5,125.5 Z"/></g>
<g><path style="opacity:1" fill="#a88746" d="M 293.5,140.5 C 276.29,138.251 258.956,137.251 241.5,137.5C 243.292,136.691 245.292,136.191 247.5,136C 263.248,134.756 278.581,136.256 293.5,140.5 Z"/></g>
<g><path style="opacity:1" fill="#54442b" d="M 367.5,135.5 C 366.71,134.391 366.21,133.058 366,131.5C 365.501,135.821 365.334,140.154 365.5,144.5C 364.352,140.019 364.185,135.352 365,130.5C 365.414,130.043 365.914,129.709 366.5,129.5C 367.466,131.396 367.799,133.396 367.5,135.5 Z"/></g>
<g><path style="opacity:1" fill="#c69c40" d="M 240.5,137.5 C 240.833,137.5 241.167,137.5 241.5,137.5C 258.956,137.251 276.29,138.251 293.5,140.5C 295.066,142.875 297.399,144.042 300.5,144C 298.109,145.309 298.109,146.309 300.5,147C 300,147.167 299.5,147.333 299,147.5C 296.359,145.857 293.526,144.69 290.5,144C 274.5,143.667 258.5,143.333 242.5,143C 244.5,142.667 246.5,142.333 248.5,142C 245.782,140.232 242.949,140.066 240,141.5C 239.544,142.744 240.044,143.577 241.5,144C 236.53,144.886 231.53,145.552 226.5,146C 225.748,146.671 225.414,147.504 225.5,148.5C 225.158,149.338 224.492,149.672 223.5,149.5C 219.763,150.079 216.096,150.079 212.5,149.5C 212.598,150.616 212.098,151.616 211,152.5C 209.141,151.148 206.974,149.481 204.5,147.5C 216.028,144.461 227.694,141.628 239.5,139C 240.056,138.617 240.389,138.117 240.5,137.5 Z"/></g>
<g><path style="opacity:1" fill="#b18f4a" d="M 138.5,149.5 C 134.114,162.848 130.781,162.348 128.5,148C 130.786,140.812 133.286,133.645 136,126.5C 142.29,133.607 143.123,141.274 138.5,149.5 Z"/></g>
<g><path style="opacity:1" fill="#c89d41" d="M 138.5,149.5 C 136.753,150.981 135.586,152.981 135,155.5C 134.784,153.616 134.117,151.949 133,150.5C 132.751,151.624 132.251,152.624 131.5,153.5C 131.167,151.833 130.833,150.167 130.5,148.5C 132.966,144.704 134.466,140.371 135,135.5C 136.299,135.966 137.799,135.966 139.5,135.5C 139.46,140.193 139.127,144.859 138.5,149.5 Z"/></g>
<g><path style="opacity:1" fill="#af8f4b" d="M 240.5,137.5 C 240.389,138.117 240.056,138.617 239.5,139C 227.694,141.628 216.028,144.461 204.5,147.5C 211.748,143.803 219.415,140.97 227.5,139C 231.751,137.805 236.085,137.305 240.5,137.5 Z"/></g>
<g><path style="opacity:1" fill="#130f0b" d="M 268.5,144.5 C 272.567,146.054 276.9,146.72 281.5,146.5C 307.544,152.188 330.211,164.188 349.5,182.5C 357.643,192.301 364.976,202.634 371.5,213.5C 375.708,222.456 378.708,231.79 380.5,241.5C 380.565,244.428 381.232,247.095 382.5,249.5C 383.41,260.802 383.743,272.136 383.5,283.5C 381.929,289.284 380.762,295.284 380,301.5C 378.164,306.852 376.33,312.185 374.5,317.5C 348.934,369.674 306.934,395.007 248.5,393.5C 229.336,391.445 211.336,385.778 194.5,376.5C 176.031,363.699 161.031,347.699 149.5,328.5C 146.039,321.594 143.039,314.594 140.5,307.5C 136.044,293.207 134.044,278.541 134.5,263.5C 135.293,253.744 136.626,244.077 138.5,234.5C 143.214,221.073 149.547,208.406 157.5,196.5C 167.578,183.754 179.245,172.754 192.5,163.5C 198.865,159.985 205.365,156.652 212,153.5C 215.917,152.073 219.751,150.739 223.5,149.5C 224.492,149.672 225.158,149.338 225.5,148.5C 239.632,145.314 253.965,143.98 268.5,144.5 Z"/></g>
<g><path style="opacity:1" fill="#c7a04b" d="M 293.5,140.5 C 317.345,146.705 337.678,158.705 354.5,176.5C 356.292,179.546 357.292,182.879 357.5,186.5C 359.288,186.215 360.955,186.548 362.5,187.5C 361.307,189.384 359.641,189.884 357.5,189C 355.319,187.652 353.652,185.818 352.5,183.5C 351.583,182.873 350.583,182.539 349.5,182.5C 330.211,164.188 307.544,152.188 281.5,146.5C 277.455,144.823 273.122,144.156 268.5,144.5C 253.965,143.98 239.632,145.314 225.5,148.5C 225.414,147.504 225.748,146.671 226.5,146C 231.53,145.552 236.53,144.886 241.5,144C 240.044,143.577 239.544,142.744 240,141.5C 242.949,140.066 245.782,140.232 248.5,142C 246.5,142.333 244.5,142.667 242.5,143C 258.5,143.333 274.5,143.667 290.5,144C 293.526,144.69 296.359,145.857 299,147.5C 299.5,147.333 300,147.167 300.5,147C 298.109,146.309 298.109,145.309 300.5,144C 297.399,144.042 295.066,142.875 293.5,140.5 Z"/></g>
<g><path style="opacity:1" fill="#866d3f" d="M 268.5,144.5 C 273.122,144.156 277.455,144.823 281.5,146.5C 276.9,146.72 272.567,146.054 268.5,144.5 Z"/></g>
<g><path style="opacity:1" fill="#b6954e" d="M 378.5,133.5 C 378.886,131.063 380.053,129.063 382,127.5C 387.306,135.422 389.639,144.089 389,153.5C 388.652,157.661 386.652,158.995 383,157.5C 381.607,153.714 379.941,150.048 378,146.5C 377.186,141.98 377.353,137.646 378.5,133.5 Z"/></g>
<g><path style="opacity:1" fill="#c79d42" d="M 378.5,133.5 C 379.859,132.993 380.859,131.993 381.5,130.5C 384.039,133.184 384.039,135.851 381.5,138.5C 382.967,138.723 384.467,139.056 386,139.5C 387.325,144.401 387.825,149.401 387.5,154.5C 385.801,154.66 384.134,154.494 382.5,154C 382.957,153.586 383.291,153.086 383.5,152.5C 379.047,146.982 377.38,140.649 378.5,133.5 Z"/></g>
<g><path style="opacity:1" fill="#66522f" d="M 250.5,150.5 C 246.02,151.521 241.353,152.187 236.5,152.5C 240.881,150.789 245.547,150.123 250.5,150.5 Z"/></g>
<g><path style="opacity:1" fill="#040302" d="M 336.5,182.5 C 351.967,196.629 362.967,213.629 369.5,233.5C 369.41,236.152 370.076,238.485 371.5,240.5C 371.294,243.495 371.96,246.162 373.5,248.5C 376.184,263.899 375.851,279.233 372.5,294.5C 356.133,351.35 318.299,381.35 259,384.5C 207.229,382.713 171.229,358.046 151,310.5C 149.471,304.627 147.637,298.96 145.5,293.5C 143.419,279.491 143.085,265.491 144.5,251.5C 145.924,249.485 146.59,247.152 146.5,244.5C 146.5,243.5 146.5,242.5 146.5,241.5C 148.31,238.855 149.31,235.855 149.5,232.5C 149.5,231.833 149.5,231.167 149.5,230.5C 156.447,212.264 167.113,196.598 181.5,183.5C 223.467,148.961 268.8,144.128 317.5,169C 323.99,173.331 330.324,177.831 336.5,182.5 Z"/></g>
<g><path style="opacity:1" fill="#ba984c" d="M 204.5,147.5 C 206.974,149.481 209.141,151.148 211,152.5C 212.098,151.616 212.598,150.616 212.5,149.5C 216.096,150.079 219.763,150.079 223.5,149.5C 219.751,150.739 215.917,152.073 212,153.5C 205.365,156.652 198.865,159.985 192.5,163.5C 192.343,162.127 192.51,160.793 193,159.5C 194.011,160.337 195.178,160.67 196.5,160.5C 196.354,158.058 197.187,157.391 199,158.5C 199.333,157.167 199.667,155.833 200,154.5C 200.388,155.428 201.055,156.095 202,156.5C 209.692,155.511 210.192,153.511 203.5,150.5C 198.882,152.394 194.548,154.727 190.5,157.5C 188.955,158.452 187.288,158.785 185.5,158.5C 191.052,153.644 197.385,149.977 204.5,147.5 Z"/></g>
<g><path style="opacity:1" fill="#bb9a55" d="M 151.5,135.5 C 152.473,137.948 152.806,140.615 152.5,143.5C 153.021,147.719 151.854,151.386 149,154.5C 143.887,159.293 138.72,163.96 133.5,168.5C 133.833,168.833 134.167,169.167 134.5,169.5C 136.979,167.924 139.646,166.924 142.5,166.5C 142.451,169.099 141.451,171.266 139.5,173C 136.102,174.916 132.435,175.916 128.5,176C 125.438,181.586 124.104,187.586 124.5,194C 124.619,197.868 124.953,201.701 125.5,205.5C 125.672,206.492 125.338,207.158 124.5,207.5C 121.778,196.096 121.945,184.763 125,173.5C 129.911,165.253 136.245,158.253 144,152.5C 147.376,147.201 149.876,141.534 151.5,135.5 Z"/></g>
<g><path style="opacity:1" fill="#c5a153" d="M 117.5,157.5 C 120.753,158.251 122.92,160.251 124,163.5C 123.533,168.15 122.7,172.817 121.5,177.5C 119.803,176.636 118.637,175.303 118,173.5C 117.501,168.177 117.334,162.844 117.5,157.5 Z"/></g>
<g><path style="opacity:1" fill="#b69656" d="M 250.5,150.5 C 282.771,148.634 311.105,157.968 335.5,178.5C 334.957,178.56 334.624,178.893 334.5,179.5C 335.612,180.265 336.279,181.265 336.5,182.5C 330.324,177.831 323.99,173.331 317.5,169C 268.8,144.128 223.467,148.961 181.5,183.5C 181.737,182.209 181.404,181.209 180.5,180.5C 196.432,165.867 215.099,156.534 236.5,152.5C 241.353,152.187 246.02,151.521 250.5,150.5 Z"/></g>
<g><path style="opacity:1" fill="#bd9b55" d="M 367.5,135.5 C 368.125,140.787 369.958,145.787 373,150.5C 378.032,155.867 383.365,160.867 389,165.5C 390.524,167.898 392.024,170.231 393.5,172.5C 393.5,173.167 393.5,173.833 393.5,174.5C 395.348,181.718 395.848,189.051 395,196.5C 394.814,193.964 394.314,191.631 393.5,189.5C 393.055,184.663 391.888,179.996 390,175.5C 382.587,176.876 378.087,173.876 376.5,166.5C 380.048,167.607 383.381,169.274 386.5,171.5C 386.833,171.167 387.167,170.833 387.5,170.5C 382.465,165.3 376.965,160.633 371,156.5C 368.299,152.773 366.465,148.773 365.5,144.5C 365.334,140.154 365.501,135.821 366,131.5C 366.21,133.058 366.71,134.391 367.5,135.5 Z"/></g>
<g><path style="opacity:1" fill="#d0a54e" d="M 400.5,157.5 C 400.95,163.334 400.283,169.001 398.5,174.5C 396.188,169.644 395.855,164.644 397.5,159.5C 397.973,158.094 398.973,157.427 400.5,157.5 Z"/></g>
<g><path style="opacity:1" fill="#bd9e57" d="M 153.5,162.5 C 159.488,162.664 160.821,165.164 157.5,170C 152.632,169.711 151.299,167.211 153.5,162.5 Z"/></g>
<g><path style="opacity:1" fill="#b99a58" d="M 360.5,162.5 C 365.486,162.305 367.152,164.472 365.5,169C 358.561,170.574 356.894,168.407 360.5,162.5 Z"/></g>
<g><path style="opacity:1" fill="#ae9152" d="M 400.5,157.5 C 401.719,163.357 401.719,169.357 400.5,175.5C 399.518,176.141 398.518,176.807 397.5,177.5C 396.92,174.553 395.92,171.886 394.5,169.5C 394.336,166.813 394.503,164.146 395,161.5C 395.708,160.619 396.542,159.953 397.5,159.5C 395.855,164.644 396.188,169.644 398.5,174.5C 400.283,169.001 400.95,163.334 400.5,157.5 Z"/></g>
<g><path style="opacity:1" fill="#cca652" d="M 192.5,163.5 C 179.245,172.754 167.578,183.754 157.5,196.5C 155.876,196.36 154.71,197.027 154,198.5C 153.833,197.667 153.667,196.833 153.5,196C 155.725,191.722 157.391,187.222 158.5,182.5C 161.586,177.908 165.253,173.742 169.5,170C 174.716,165.903 180.049,162.069 185.5,158.5C 187.288,158.785 188.955,158.452 190.5,157.5C 194.548,154.727 198.882,152.394 203.5,150.5C 210.192,153.511 209.692,155.511 202,156.5C 201.055,156.095 200.388,155.428 200,154.5C 199.667,155.833 199.333,157.167 199,158.5C 197.187,157.391 196.354,158.058 196.5,160.5C 195.178,160.67 194.011,160.337 193,159.5C 192.51,160.793 192.343,162.127 192.5,163.5 Z"/></g>
<g><path style="opacity:1" fill="#c4a35c" d="M 148.5,171.5 C 150.167,171.5 151.833,171.5 153.5,171.5C 154.167,175.5 152.5,177.167 148.5,176.5C 148.5,174.833 148.5,173.167 148.5,171.5 Z"/></g>
<g><path style="opacity:1" fill="#bc9d5e" d="M 370.5,172.5 C 370.5,173.833 370.5,175.167 370.5,176.5C 369.167,176.5 367.833,176.5 366.5,176.5C 365.387,175.054 365.22,173.387 366,171.5C 367.915,170.084 369.415,170.418 370.5,172.5 Z"/></g>
<g><path style="opacity:1" fill="#b69b65" d="M 144.5,177.5 C 147.5,177.167 148.833,178.5 148.5,181.5C 146.833,181.5 145.167,181.5 143.5,181.5C 143.433,180.041 143.766,178.708 144.5,177.5 Z"/></g>
<g><path style="opacity:1" fill="#c5ad6e" d="M 335.5,178.5 C 355.344,194.366 368.344,214.699 374.5,239.5C 373.732,238.737 373.232,237.737 373,236.5C 372.31,235.262 371.81,235.262 371.5,236.5C 370.833,235.5 370.167,234.5 369.5,233.5C 362.967,213.629 351.967,196.629 336.5,182.5C 336.279,181.265 335.612,180.265 334.5,179.5C 334.624,178.893 334.957,178.56 335.5,178.5 Z"/></g>
<g><path style="opacity:1" fill="#d0b060" d="M 119.5,186.5 C 119.892,189.722 119.392,192.722 118,195.5C 116.96,192.177 115.46,189.177 113.5,186.5C 112.539,184.735 112.205,182.735 112.5,180.5C 116.055,181.054 118.388,183.054 119.5,186.5 Z"/></g>
<g><path style="opacity:1" fill="#bda264" d="M 132.5,180.5 C 133.5,180.5 134.5,180.5 135.5,180.5C 134.973,185.362 132.306,188.362 127.5,189.5C 126.417,188.635 126.251,187.635 127,186.5C 129.04,184.63 130.873,182.63 132.5,180.5 Z"/></g>
<g><path style="opacity:1" fill="#cbac62" d="M 406.5,182.5 C 405.249,186.418 404.249,190.418 403.5,194.5C 402.33,196.279 400.664,197.279 398.5,197.5C 398.121,192.703 398.621,188.036 400,183.5C 402.242,180.526 404.408,180.193 406.5,182.5 Z"/></g>
<g><path style="opacity:1" fill="#b29962" d="M 113.5,186.5 C 115.46,189.177 116.96,192.177 118,195.5C 119.392,192.722 119.892,189.722 119.5,186.5C 120.809,190.351 120.809,194.351 119.5,198.5C 115.196,195.731 113.196,191.731 113.5,186.5 Z"/></g>
<g><path style="opacity:1" fill="#a89563" d="M 260.5,187.5 C 262.176,188.183 262.843,189.517 262.5,191.5C 264.288,191.215 265.955,191.548 267.5,192.5C 266.263,193.281 265.263,194.281 264.5,195.5C 265.818,199.692 264.818,200.359 261.5,197.5C 258.326,200.473 257.326,199.973 258.5,196C 258.012,194.416 257.012,193.249 255.5,192.5C 257.045,191.548 258.712,191.215 260.5,191.5C 260.5,190.167 260.5,188.833 260.5,187.5 Z"/></g>
<g><path style="opacity:1" fill="#ddba62" d="M 258.5,193.5 C 260.757,192.114 262.424,192.781 263.5,195.5C 262.311,196.429 260.978,196.762 259.5,196.5C 259.737,195.209 259.404,194.209 258.5,193.5 Z"/></g>
<g><path style="opacity:1" fill="#ccb066" d="M 127.5,206.5 C 127.5,204.5 127.5,202.5 127.5,200.5C 128.135,190.857 133.135,186.19 142.5,186.5C 137.117,193.934 132.783,201.934 129.5,210.5C 128.295,209.423 127.628,208.09 127.5,206.5 Z"/></g>
<g><path style="opacity:1" fill="#d6b565" d="M 354.5,176.5 C 357.5,178.833 360.167,181.5 362.5,184.5C 369.092,192.014 374.425,200.347 378.5,209.5C 376.121,210.567 375.121,209.567 375.5,206.5C 370.798,206.904 369.465,209.237 371.5,213.5C 364.976,202.634 357.643,192.301 349.5,182.5C 350.583,182.539 351.583,182.873 352.5,183.5C 353.652,185.818 355.319,187.652 357.5,189C 359.641,189.884 361.307,189.384 362.5,187.5C 360.955,186.548 359.288,186.215 357.5,186.5C 357.292,182.879 356.292,179.546 354.5,176.5 Z"/></g>
<g><path style="opacity:1" fill="#d5b96c" d="M 119.5,217.5 C 115.833,217.5 112.167,217.5 108.5,217.5C 107.282,216.839 105.949,216.172 104.5,215.5C 106.422,214.289 108.255,212.956 110,211.5C 110.711,209.633 110.211,208.133 108.5,207C 104.102,205.622 100.602,206.788 98,210.5C 99.1794,201.323 104.346,197.49 113.5,199C 120.533,202.347 123.7,207.847 123,215.5C 121.887,216.305 120.721,216.972 119.5,217.5 Z"/></g>
<g><path style="opacity:1" fill="#dbbd6b" d="M 406.5,198.5 C 409.838,198.065 412.838,198.732 415.5,200.5C 415.84,202.679 416.84,204.512 418.5,206C 417.906,206.464 417.239,206.631 416.5,206.5C 413.881,206.232 411.381,206.565 409,207.5C 408.333,209.167 408.333,210.833 409,212.5C 414.411,214.305 414.578,215.972 409.5,217.5C 405.833,217.5 402.167,217.5 398.5,217.5C 394.949,215.996 393.782,213.33 395,209.5C 397.437,204.226 401.271,200.56 406.5,198.5 Z"/></g>
<g><path style="opacity:1" fill="#dbbf70" d="M 158.5,182.5 C 157.391,187.222 155.725,191.722 153.5,196C 153.667,196.833 153.833,197.667 154,198.5C 154.71,197.027 155.876,196.36 157.5,196.5C 149.547,208.406 143.214,221.073 138.5,234.5C 137.79,232.254 137.29,229.92 137,227.5C 135.114,228.93 133.447,230.597 132,232.5C 130.473,241.003 128.64,249.337 126.5,257.5C 128.641,228.708 139.308,203.708 158.5,182.5 Z"/></g>
<g><path style="opacity:1" fill="#cfb168" d="M 259.5,206.5 C 260.5,207.167 261.5,207.833 262.5,208.5C 261.414,208.62 260.747,209.287 260.5,210.5C 261.122,213.374 262.122,216.04 263.5,218.5C 262.5,218.5 261.5,218.5 260.5,218.5C 260.453,215.432 259.953,212.432 259,209.5C 258.617,210.056 258.117,210.389 257.5,210.5C 246.419,207.039 241.919,199.372 244,187.5C 248.141,179.348 254.641,176.515 263.5,179C 249.696,183.302 246.696,191.635 254.5,204C 256.078,205.094 257.745,205.928 259.5,206.5 Z"/></g>
<g><path style="opacity:1" fill="#716a4b" d="M 259.5,206.5 C 261.857,206.337 264.19,206.503 266.5,207C 265.437,208.188 264.103,208.688 262.5,208.5C 261.5,207.833 260.5,207.167 259.5,206.5 Z"/></g>
<g><path style="opacity:1" fill="#9f9067" d="M 415.5,200.5 C 418.904,202.975 420.404,206.308 420,210.5C 418.898,209.051 417.731,207.718 416.5,206.5C 417.239,206.631 417.906,206.464 418.5,206C 416.84,204.512 415.84,202.679 415.5,200.5 Z"/></g>
<g><path style="opacity:1" fill="#6f664e" d="M 127.5,200.5 C 127.5,202.5 127.5,204.5 127.5,206.5C 126.691,208.292 126.191,210.292 126,212.5C 125.392,210.846 124.892,209.179 124.5,207.5C 125.338,207.158 125.672,206.492 125.5,205.5C 126.167,203.833 126.833,202.167 127.5,200.5 Z"/></g>
<g><path style="opacity:1" fill="#c6af6f" d="M 180.5,180.5 C 181.404,181.209 181.737,182.209 181.5,183.5C 167.113,196.598 156.447,212.264 149.5,230.5C 149.591,228.302 148.925,227.969 147.5,229.5C 153.75,210.009 164.75,193.676 180.5,180.5 Z"/></g>
<g><path style="opacity:1" fill="#e6cb76" d="M 378.5,209.5 C 383.201,217.953 386.534,226.953 388.5,236.5C 387.542,236.953 386.708,237.619 386,238.5C 385.667,237.5 385.333,236.5 385,235.5C 384.667,235.833 384.333,236.167 384,236.5C 384.253,239.133 384.253,241.8 384,244.5C 383.623,243.058 382.79,242.058 381.5,241.5C 381.167,241.5 380.833,241.5 380.5,241.5C 378.708,231.79 375.708,222.456 371.5,213.5C 369.465,209.237 370.798,206.904 375.5,206.5C 375.121,209.567 376.121,210.567 378.5,209.5 Z"/></g>
<g><path style="opacity:1" fill="#3e3625" d="M 398.5,217.5 C 402.167,217.5 405.833,217.5 409.5,217.5C 409.158,218.338 408.492,218.672 407.5,218.5C 404.615,218.194 401.948,218.527 399.5,219.5C 398.508,219.328 397.842,219.662 397.5,220.5C 396.448,220.649 395.448,220.483 394.5,220C 395.858,219.066 397.192,218.232 398.5,217.5 Z"/></g>
<g><path style="opacity:1" fill="#181511" d="M 108.5,217.5 C 112.167,217.5 115.833,217.5 119.5,217.5C 121.189,218.304 122.855,219.304 124.5,220.5C 122.955,221.452 121.288,221.785 119.5,221.5C 119.918,220.778 120.584,220.278 121.5,220C 120.167,219.333 118.833,219.333 117.5,220C 110.7,224.944 108.7,231.444 111.5,239.5C 112.937,242.714 114.603,245.714 116.5,248.5C 118.86,260.957 113.86,265.124 101.5,261C 93.6125,258.241 91.2792,253.241 94.5,246C 97.1667,245.333 99.8333,245.333 102.5,246C 104.141,247.129 105.141,248.629 105.5,250.5C 105.714,252.144 105.38,253.644 104.5,255C 106.489,255.519 107.489,254.686 107.5,252.5C 106.875,243.164 101.875,239.664 92.5,242C 86.2054,248.026 85.872,254.526 91.5,261.5C 90.1667,261.5 88.8333,261.5 87.5,261.5C 87.2627,257.711 86.5961,257.711 85.5,261.5C 82.8464,255.532 82.0131,249.198 83,242.5C 89.3199,235.727 96.4865,234.727 104.5,239.5C 104.433,233.346 106.433,228.013 110.5,223.5C 110.376,222.893 110.043,222.56 109.5,222.5C 110.842,221.207 112.509,220.374 114.5,220C 112.498,218.981 110.498,218.148 108.5,217.5 Z"/></g>
<g><path style="opacity:1" fill="#e8d07f" d="M 263.5,218.5 C 266.698,222.355 270.031,226.188 273.5,230C 281.156,235.83 289.156,241.163 297.5,246C 300.288,247.719 302.621,249.885 304.5,252.5C 302.255,250.639 299.588,249.639 296.5,249.5C 296.719,248.325 296.386,247.325 295.5,246.5C 292.553,245.577 289.553,244.911 286.5,244.5C 286.5,245.5 286.5,246.5 286.5,247.5C 288.619,247.468 289.952,248.468 290.5,250.5C 279.452,245.297 269.619,238.297 261,229.5C 260.529,227.754 259.862,226.087 259,224.5C 256.252,229.252 252.752,233.419 248.5,237C 241.278,241.773 233.945,246.273 226.5,250.5C 225.972,249.153 225.805,247.819 226,246.5C 227.494,247.747 228.994,247.747 230.5,246.5C 229.562,245.447 228.395,244.78 227,244.5C 225.234,245.233 223.401,245.567 221.5,245.5C 229.264,240.251 236.931,234.751 244.5,229C 250.283,223.739 254.616,217.572 257.5,210.5C 258.117,210.389 258.617,210.056 259,209.5C 259.953,212.432 260.453,215.432 260.5,218.5C 261.5,218.5 262.5,218.5 263.5,218.5 Z"/></g>
<g><path style="opacity:1" fill="#9f9262" d="M 417.5,231.5 C 422.245,231.518 426.911,231.852 431.5,232.5C 427.973,232.504 424.473,232.837 421,233.5C 419.319,233.392 418.152,232.725 417.5,231.5 Z"/></g>
<g><path style="opacity:1" fill="#dcc983" d="M 109.5,222.5 C 110.043,222.56 110.376,222.893 110.5,223.5C 106.433,228.013 104.433,233.346 104.5,239.5C 96.4865,234.727 89.3199,235.727 83,242.5C 82.0131,249.198 82.8464,255.532 85.5,261.5C 88.3104,265.661 87.3104,266.494 82.5,264C 75.4384,257.486 73.2718,249.653 76,240.5C 78.5962,236.61 82.0962,233.777 86.5,232C 91.258,231.788 95.9247,231.622 100.5,231.5C 103.188,228.146 106.188,225.146 109.5,222.5 Z"/></g>
<g><path style="opacity:1" fill="#dbc884" d="M 397.5,220.5 C 397.842,219.662 398.508,219.328 399.5,219.5C 407.192,223.949 409.692,230.615 407,239.5C 403.756,245.483 401.923,251.817 401.5,258.5C 400.686,256.369 400.186,254.036 400,251.5C 399.026,253.878 398.359,253.544 398,250.5C 396.595,253.619 396.095,256.952 396.5,260.5C 395.357,257.024 395.19,253.358 396,249.5C 399.936,243.63 402.769,237.297 404.5,230.5C 404.137,225.771 401.804,222.438 397.5,220.5 Z"/></g>
<g><path style="opacity:1" fill="#6e6246" d="M 149.5,232.5 C 149.31,235.855 148.31,238.855 146.5,241.5C 146.528,238.084 147.528,235.084 149.5,232.5 Z"/></g>
<g><path style="opacity:1" fill="#564937" d="M 369.5,233.5 C 370.167,234.5 370.833,235.5 371.5,236.5C 371.5,237.833 371.5,239.167 371.5,240.5C 370.076,238.485 369.41,236.152 369.5,233.5 Z"/></g>
<g><path style="opacity:1" fill="#d7c380" d="M 119.5,221.5 C 115.938,223.227 114.271,226.06 114.5,230C 114.565,232.591 115.065,235.091 116,237.5C 117.86,241.22 119.693,244.886 121.5,248.5C 119.907,247.652 118.74,246.319 118,244.5C 117.79,246.058 117.29,247.391 116.5,248.5C 114.603,245.714 112.937,242.714 111.5,239.5C 108.7,231.444 110.7,224.944 117.5,220C 118.833,219.333 120.167,219.333 121.5,220C 120.584,220.278 119.918,220.778 119.5,221.5 Z"/></g>
<g><path style="opacity:1" fill="#16130f" d="M 399.5,219.5 C 401.948,218.527 404.615,218.194 407.5,218.5C 410.612,220.572 413.612,222.905 416.5,225.5C 416.137,226.183 415.804,226.85 415.5,227.5C 405.898,218.949 404.731,219.616 412,229.5C 412.879,232.818 413.713,236.152 414.5,239.5C 421.153,235.33 427.653,235.663 434,240.5C 435.57,246.053 435.903,251.719 435,257.5C 434.722,258.416 434.222,259.082 433.5,259.5C 433.44,258.957 433.107,258.624 432.5,258.5C 431.15,259.95 429.484,260.617 427.5,260.5C 431.185,256.637 432.185,252.304 430.5,247.5C 429.647,244.482 427.647,242.649 424.5,242C 418.419,240.142 413.919,241.975 411,247.5C 410.829,255.313 411.829,255.313 414,247.5C 417.799,244.867 421.633,244.867 425.5,247.5C 426.575,249.811 426.575,252.144 425.5,254.5C 420.127,260.238 413.46,262.738 405.5,262C 404.051,260.898 402.718,259.731 401.5,258.5C 401.923,251.817 403.756,245.483 407,239.5C 409.692,230.615 407.192,223.949 399.5,219.5 Z"/></g>
<g><path style="opacity:1" fill="#f6e189" d="M 78.5,239.5 C 79.7498,239.577 80.5831,240.244 81,241.5C 81.4993,246.489 81.6659,251.489 81.5,256.5C 77.723,255.139 76.0563,252.306 76.5,248C 77.104,245.113 77.7707,242.28 78.5,239.5 Z"/></g>
<g><path style="opacity:1" fill="#0e0c09" d="M 290.5,250.5 C 295.769,254.593 300.935,258.926 306,263.5C 308.533,266.853 310.367,270.519 311.5,274.5C 311.5,277.833 311.5,281.167 311.5,284.5C 312.5,284.5 313.5,284.5 314.5,284.5C 315.209,285.404 316.209,285.737 317.5,285.5C 317.5,285.833 317.5,286.167 317.5,286.5C 310.268,286.723 303.268,288.056 296.5,290.5C 296.611,289.883 296.944,289.383 297.5,289C 296.584,288.722 295.918,288.222 295.5,287.5C 297.735,287.795 299.735,287.461 301.5,286.5C 302.533,280.374 301.033,275.041 297,270.5C 288.68,262.511 279.514,255.678 269.5,250C 264.983,245.795 261.317,240.962 258.5,235.5C 256.169,241.321 252.502,246.154 247.5,250C 241.805,253.843 236.138,257.677 230.5,261.5C 229.294,260.12 229.627,258.953 231.5,258C 229.757,253.586 226.757,252.419 222.5,254.5C 223.833,253.167 225.167,251.833 226.5,250.5C 233.945,246.273 241.278,241.773 248.5,237C 252.752,233.419 256.252,229.252 259,224.5C 259.862,226.087 260.529,227.754 261,229.5C 269.619,238.297 279.452,245.297 290.5,250.5 Z"/></g>
<g><path style="opacity:1" fill="#685e45" d="M 371.5,240.5 C 372.768,242.905 373.435,245.572 373.5,248.5C 371.96,246.162 371.294,243.495 371.5,240.5 Z"/></g>
<g><path style="opacity:1" fill="#6d6247" d="M 380.5,241.5 C 380.833,241.5 381.167,241.5 381.5,241.5C 382.092,244.127 382.425,246.794 382.5,249.5C 381.232,247.095 380.565,244.428 380.5,241.5 Z"/></g>
<g><path style="opacity:1" fill="#d7c787" d="M 430.5,247.5 C 429.85,247.804 429.183,248.137 428.5,248.5C 428.036,250.975 427.036,252.975 425.5,254.5C 426.575,252.144 426.575,249.811 425.5,247.5C 421.633,244.867 417.799,244.867 414,247.5C 411.829,255.313 410.829,255.313 411,247.5C 413.919,241.975 418.419,240.142 424.5,242C 427.647,242.649 429.647,244.482 430.5,247.5 Z"/></g>
<g><path style="opacity:1" fill="#f1e08f" d="M 226.5,250.5 C 225.167,251.833 223.833,253.167 222.5,254.5C 213.981,258.69 208.314,265.357 205.5,274.5C 204.523,277.287 204.19,280.287 204.5,283.5C 201.833,283.5 199.167,283.5 196.5,283.5C 196.152,277.638 196.985,271.972 199,266.5C 204.78,257.55 212.28,250.55 221.5,245.5C 223.401,245.567 225.234,245.233 227,244.5C 228.395,244.78 229.562,245.447 230.5,246.5C 228.994,247.747 227.494,247.747 226,246.5C 225.805,247.819 225.972,249.153 226.5,250.5 Z"/></g>
<g><path style="opacity:1" fill="#62573c" d="M 146.5,244.5 C 146.59,247.152 145.924,249.485 144.5,251.5C 144.41,248.848 145.076,246.515 146.5,244.5 Z"/></g>
<g><path style="opacity:1" fill="#e9da90" d="M 416.5,247.5 C 422.235,246.821 423.902,249.155 421.5,254.5C 414.789,255.788 413.122,253.454 416.5,247.5 Z"/></g>
<g><path style="opacity:1" fill="#050403" d="M 295.5,281.5 C 295.5,283.5 295.5,285.5 295.5,287.5C 295.918,288.222 296.584,288.722 297.5,289C 296.944,289.383 296.611,289.883 296.5,290.5C 295.209,290.263 294.209,290.596 293.5,291.5C 281.631,294.934 270.631,300.267 260.5,307.5C 251.678,301.424 242.344,296.424 232.5,292.5C 230.485,291.076 228.152,290.41 225.5,290.5C 222.5,289.833 219.5,289.167 216.5,288.5C 218.265,287.539 220.265,287.205 222.5,287.5C 222.5,284.5 222.5,281.5 222.5,278.5C 223.818,274.668 226.152,271.501 229.5,269C 236.996,263.751 244.663,258.751 252.5,254C 255.07,251.933 257.07,249.433 258.5,246.5C 260.38,249.091 262.38,251.591 264.5,254C 272.337,258.751 280.004,263.751 287.5,269C 291.578,272.337 294.245,276.503 295.5,281.5 Z"/></g>
<g><path style="opacity:1" fill="#e8d589" d="M 415.5,227.5 C 416.167,228.833 416.833,230.167 417.5,231.5C 418.152,232.725 419.319,233.392 421,233.5C 424.473,232.837 427.973,232.504 431.5,232.5C 442.405,235.972 446.238,243.305 443,254.5C 440.694,259.306 437.194,262.973 432.5,265.5C 432.167,265.167 431.833,264.833 431.5,264.5C 432.95,263.15 433.617,261.484 433.5,259.5C 434.222,259.082 434.722,258.416 435,257.5C 435.903,251.719 435.57,246.053 434,240.5C 427.653,235.663 421.153,235.33 414.5,239.5C 413.713,236.152 412.879,232.818 412,229.5C 404.731,219.616 405.898,218.949 415.5,227.5 Z"/></g>
<g><path style="opacity:1" fill="#f1e090" d="M 304.5,252.5 C 311.25,256.586 316.25,262.252 319.5,269.5C 320.229,274.13 320.563,278.797 320.5,283.5C 317.833,283.5 315.167,283.5 312.5,283.5C 312.81,280.287 312.477,277.287 311.5,274.5C 310.367,270.519 308.533,266.853 306,263.5C 300.935,258.926 295.769,254.593 290.5,250.5C 289.952,248.468 288.619,247.468 286.5,247.5C 286.5,246.5 286.5,245.5 286.5,244.5C 289.553,244.911 292.553,245.577 295.5,246.5C 296.386,247.325 296.719,248.325 296.5,249.5C 299.588,249.639 302.255,250.639 304.5,252.5 Z"/></g>
<g><path style="opacity:1" fill="#f2de8b" d="M 138.5,234.5 C 136.626,244.077 135.293,253.744 134.5,263.5C 133.35,269.311 132.517,275.311 132,281.5C 131.374,283.991 130.541,283.991 129.5,281.5C 128.749,282.376 128.249,283.376 128,284.5C 127.722,283.584 127.222,282.918 126.5,282.5C 125.194,274.136 125.194,265.803 126.5,257.5C 128.64,249.337 130.473,241.003 132,232.5C 133.447,230.597 135.114,228.93 137,227.5C 137.29,229.92 137.79,232.254 138.5,234.5 Z"/></g>
<g><path style="opacity:1" fill="#eadb91" d="M 107.5,252.5 C 106.833,251.833 106.167,251.167 105.5,250.5C 105.141,248.629 104.141,247.129 102.5,246C 99.8333,245.333 97.1667,245.333 94.5,246C 91.2792,253.241 93.6125,258.241 101.5,261C 113.86,265.124 118.86,260.957 116.5,248.5C 117.29,247.391 117.79,246.058 118,244.5C 118.74,246.319 119.907,247.652 121.5,248.5C 125.512,256.772 123.512,263.105 115.5,267.5C 110.13,267.608 104.797,267.275 99.5,266.5C 96.322,265.656 93.6554,263.989 91.5,261.5C 85.872,254.526 86.2054,248.026 92.5,242C 101.875,239.664 106.875,243.164 107.5,252.5 Z"/></g>
<g><path style="opacity:1" fill="#6e6e5b" d="M 105.5,250.5 C 106.167,251.167 106.833,251.833 107.5,252.5C 107.489,254.686 106.489,255.519 104.5,255C 105.38,253.644 105.714,252.144 105.5,250.5 Z"/></g>
<g><path style="opacity:1" fill="#e9d790" d="M 97.5,247.5 C 103.313,247.062 104.98,249.562 102.5,255C 95.745,255.756 94.0783,253.256 97.5,247.5 Z"/></g>
<g><path style="opacity:1" fill="#ecdc91" d="M 301.5,286.5 C 299.833,286.5 298.167,286.5 296.5,286.5C 296.784,284.585 296.451,282.919 295.5,281.5C 294.245,276.503 291.578,272.337 287.5,269C 280.004,263.751 272.337,258.751 264.5,254C 262.38,251.591 260.38,249.091 258.5,246.5C 257.07,249.433 255.07,251.933 252.5,254C 244.663,258.751 236.996,263.751 229.5,269C 226.152,271.501 223.818,274.668 222.5,278.5C 221.527,280.948 221.194,283.615 221.5,286.5C 219.5,286.5 217.5,286.5 215.5,286.5C 214.993,281.879 215.826,277.546 218,273.5C 221.444,268.704 225.611,264.704 230.5,261.5C 236.138,257.677 241.805,253.843 247.5,250C 252.502,246.154 256.169,241.321 258.5,235.5C 261.317,240.962 264.983,245.795 269.5,250C 279.514,255.678 288.68,262.511 297,270.5C 301.033,275.041 302.533,280.374 301.5,286.5 Z"/></g>
<g><path style="opacity:1" fill="#3f3528" d="M 390.5,244.5 C 391.977,248.233 392.811,252.233 393,256.5C 393.822,264.345 393.656,272.011 392.5,279.5C 392.77,267.77 392.103,256.103 390.5,244.5 Z"/></g>
<g><path style="opacity:1" fill="#eee094" d="M 430.5,247.5 C 432.185,252.304 431.185,256.637 427.5,260.5C 423.464,264.847 418.464,267.513 412.5,268.5C 410.167,268.5 407.833,268.5 405.5,268.5C 401.07,267.45 398.07,264.784 396.5,260.5C 396.095,256.952 396.595,253.619 398,250.5C 398.359,253.544 399.026,253.878 400,251.5C 400.186,254.036 400.686,256.369 401.5,258.5C 402.718,259.731 404.051,260.898 405.5,262C 413.46,262.738 420.127,260.238 425.5,254.5C 427.036,252.975 428.036,250.975 428.5,248.5C 429.183,248.137 429.85,247.804 430.5,247.5 Z"/></g>
<g><path style="opacity:1" fill="#b7b07e" d="M 99.5,266.5 C 104.797,267.275 110.13,267.608 115.5,267.5C 113.527,268.163 111.361,268.496 109,268.5C 105.523,268.672 102.356,268.006 99.5,266.5 Z"/></g>
<g><path style="opacity:1" fill="#564b31" d="M 405.5,268.5 C 407.833,268.5 410.167,268.5 412.5,268.5C 412.5,269.167 412.5,269.833 412.5,270.5C 409.833,270.5 407.167,270.5 404.5,270.5C 404.833,269.833 405.167,269.167 405.5,268.5 Z"/></g>
<g><path style="opacity:1" fill="#d9cb8c" d="M 374.5,239.5 C 379.826,258.937 379.826,278.27 374.5,297.5C 373.778,297.918 373.278,298.584 373,299.5C 372.506,297.866 372.34,296.199 372.5,294.5C 375.851,279.233 376.184,263.899 373.5,248.5C 373.435,245.572 372.768,242.905 371.5,240.5C 371.5,239.167 371.5,237.833 371.5,236.5C 371.81,235.262 372.31,235.262 373,236.5C 373.232,237.737 373.732,238.737 374.5,239.5 Z"/></g>
<g><path style="opacity:1" fill="#baad84" d="M 86.5,272.5 C 87.0431,272.56 87.3764,272.893 87.5,273.5C 86.4793,274.901 85.4793,276.235 84.5,277.5C 84.631,276.761 84.4643,276.094 84,275.5C 83.3292,276.252 82.4959,276.586 81.5,276.5C 82.5846,274.413 84.2512,273.08 86.5,272.5 Z"/></g>
<g><path style="opacity:1" fill="#7e7455" d="M 319.5,269.5 C 320.973,272.017 321.64,274.85 321.5,278C 321.494,280.033 321.161,281.866 320.5,283.5C 320.563,278.797 320.229,274.13 319.5,269.5 Z"/></g>
<g><path style="opacity:1" fill="#b8ad80" d="M 431.5,272.5 C 434.37,273.433 436.704,275.1 438.5,277.5C 436.983,277.489 435.816,276.823 435,275.5C 434.517,276.448 434.351,277.448 434.5,278.5C 432.992,276.819 431.992,274.819 431.5,272.5 Z"/></g>
<g><path style="opacity:1" fill="#15120e" d="M 86.5,272.5 C 86.56,271.957 86.8933,271.624 87.5,271.5C 88.3857,272.325 88.719,273.325 88.5,274.5C 89.9587,274.433 91.2921,274.766 92.5,275.5C 87.9457,279.912 86.4457,285.246 88,291.5C 88.66,293.324 89.8267,294.657 91.5,295.5C 94.9416,297.94 98.6083,298.106 102.5,296C 107.333,292.812 108.5,288.645 106,283.5C 106.586,291.08 103.086,294.414 95.5,293.5C 92.6128,291.282 91.7795,288.282 93,284.5C 99.6445,276.098 107.644,274.432 117,279.5C 117.95,285.934 116.284,291.6 112,296.5C 109.692,302.538 110.192,308.204 113.5,313.5C 114.693,317.533 117.36,319.366 121.5,319C 120.944,318.617 120.611,318.117 120.5,317.5C 122.288,317.215 123.955,317.548 125.5,318.5C 124.544,320.075 123.877,321.742 123.5,323.5C 120.419,320.807 116.753,319.807 112.5,320.5C 112.833,319.833 113.167,319.167 113.5,318.5C 110.065,314.628 107.398,310.294 105.5,305.5C 105.808,303.076 105.474,300.743 104.5,298.5C 98.8257,301.909 92.8257,302.409 86.5,300C 83.1142,297.131 81.7809,293.464 82.5,289C 82.4322,284.997 83.0989,281.164 84.5,277.5C 85.4793,276.235 86.4793,274.901 87.5,273.5C 87.3764,272.893 87.0431,272.56 86.5,272.5 Z"/></g>
<g><path style="opacity:1" fill="#e8d58d" d="M 114.5,311.5 C 114.672,312.492 114.338,313.158 113.5,313.5C 110.192,308.204 109.692,302.538 112,296.5C 116.284,291.6 117.95,285.934 117,279.5C 107.644,274.432 99.6445,276.098 93,284.5C 91.7795,288.282 92.6128,291.282 95.5,293.5C 94.8166,295.176 93.4832,295.843 91.5,295.5C 89.8267,294.657 88.66,293.324 88,291.5C 86.4457,285.246 87.9457,279.912 92.5,275.5C 100.246,269.742 108.579,268.576 117.5,272C 122.816,275.472 124.649,280.305 123,286.5C 120.333,291.833 117.667,297.167 115,302.5C 114.502,305.482 114.335,308.482 114.5,311.5 Z"/></g>
<g><path style="opacity:1" fill="#f2de8b" d="M 388.5,236.5 C 389.774,238.993 390.44,241.659 390.5,244.5C 392.103,256.103 392.77,267.77 392.5,279.5C 392.167,280.833 391.833,282.167 391.5,283.5C 390.883,283.389 390.383,283.056 390,282.5C 389.667,287.167 389.333,291.833 389,296.5C 387.672,300.436 386.338,304.436 385,308.5C 384.29,309.973 383.124,310.64 381.5,310.5C 381.5,309.167 381.5,307.833 381.5,306.5C 382.5,306.5 383.5,306.5 384.5,306.5C 384.376,304.048 383.376,302.048 381.5,300.5C 382.995,298.83 384.328,296.997 385.5,295C 384.366,293.984 384.699,293.317 386.5,293C 385.584,292.626 384.75,292.126 384,291.5C 383.503,288.854 383.336,286.187 383.5,283.5C 383.743,272.136 383.41,260.802 382.5,249.5C 382.425,246.794 382.092,244.127 381.5,241.5C 382.79,242.058 383.623,243.058 384,244.5C 384.253,241.8 384.253,239.133 384,236.5C 384.333,236.167 384.667,235.833 385,235.5C 385.333,236.5 385.667,237.5 386,238.5C 386.708,237.619 387.542,236.953 388.5,236.5 Z"/></g>
<g><path style="opacity:1" fill="#e7d58d" d="M 404.5,270.5 C 407.167,270.5 409.833,270.5 412.5,270.5C 418.141,271.487 423.141,273.821 427.5,277.5C 434.47,287.321 432.303,293.987 421,297.5C 413.401,296.277 410.234,291.944 411.5,284.5C 412.524,291.047 416.191,293.881 422.5,293C 426.53,290.713 427.364,287.546 425,283.5C 419.286,277.929 412.452,275.762 404.5,277C 402.119,278.509 401.119,280.675 401.5,283.5C 402.598,288.364 404.265,293.031 406.5,297.5C 407.051,300.807 407.384,304.14 407.5,307.5C 406.861,312.264 404.528,316.097 400.5,319C 399.167,319.667 397.833,319.667 396.5,319C 403.224,315.517 405.724,310.017 404,302.5C 401.567,298.633 399.4,294.633 397.5,290.5C 396.8,286.202 396.467,281.869 396.5,277.5C 397.905,273.764 400.571,271.431 404.5,270.5 Z"/></g>
<g><path style="opacity:1" fill="#e2d494" d="M 149.5,230.5 C 149.5,231.167 149.5,231.833 149.5,232.5C 147.528,235.084 146.528,238.084 146.5,241.5C 146.5,242.5 146.5,243.5 146.5,244.5C 145.076,246.515 144.41,248.848 144.5,251.5C 143.085,265.491 143.419,279.491 145.5,293.5C 145.657,294.873 145.49,296.207 145,297.5C 144.617,296.944 144.117,296.611 143.5,296.5C 139.377,276.782 139.544,257.116 144,237.5C 144.705,234.524 145.871,231.858 147.5,229.5C 148.925,227.969 149.591,228.302 149.5,230.5 Z"/></g>
<g><path style="opacity:1" fill="#635d45" d="M 205.5,274.5 C 205.5,277.833 205.5,281.167 205.5,284.5C 202.287,284.81 199.287,284.477 196.5,283.5C 199.167,283.5 201.833,283.5 204.5,283.5C 204.19,280.287 204.523,277.287 205.5,274.5 Z"/></g>
<g><path style="opacity:1" fill="#6f654c" d="M 311.5,274.5 C 312.477,277.287 312.81,280.287 312.5,283.5C 315.167,283.5 317.833,283.5 320.5,283.5C 318.735,284.461 316.735,284.795 314.5,284.5C 313.5,284.5 312.5,284.5 311.5,284.5C 311.5,281.167 311.5,277.833 311.5,274.5 Z"/></g>
<g><path style="opacity:1" fill="#f1da8a" d="M 438.5,277.5 C 440.168,279.34 441.668,281.34 443,283.5C 446.181,294.815 442.348,302.148 431.5,305.5C 428.428,305.817 425.428,305.484 422.5,304.5C 425.758,303.147 429.092,301.98 432.5,301C 434.141,299.871 435.141,298.371 435.5,296.5C 436.94,290.432 436.606,284.432 434.5,278.5C 434.351,277.448 434.517,276.448 435,275.5C 435.816,276.823 436.983,277.489 438.5,277.5 Z"/></g>
<g><path style="opacity:1" fill="#514935" d="M 222.5,278.5 C 222.5,281.5 222.5,284.5 222.5,287.5C 220.265,287.205 218.265,287.539 216.5,288.5C 211.647,288.187 206.98,287.521 202.5,286.5C 207.056,286.745 211.39,286.745 215.5,286.5C 217.5,286.5 219.5,286.5 221.5,286.5C 221.194,283.615 221.527,280.948 222.5,278.5 Z"/></g>
<g><path style="opacity:1" fill="#7c7151" d="M 295.5,281.5 C 296.451,282.919 296.784,284.585 296.5,286.5C 298.167,286.5 299.833,286.5 301.5,286.5C 299.735,287.461 297.735,287.795 295.5,287.5C 295.5,285.5 295.5,283.5 295.5,281.5 Z"/></g>
<g><path style="opacity:1" fill="#e0ce8b" d="M 97.5,282.5 C 103.263,282.783 104.93,285.616 102.5,291C 95.4159,291.475 93.7492,288.642 97.5,282.5 Z"/></g>
<g><path style="opacity:1" fill="#7d735f" d="M 179.5,286.5 C 178.833,287.167 178.167,287.833 177.5,288.5C 176.325,288.719 175.325,288.386 174.5,287.5C 176.045,286.548 177.712,286.215 179.5,286.5 Z"/></g>
<g><path style="opacity:1" fill="#e8d48b" d="M 317.5,286.5 C 324.5,286.5 331.5,286.5 338.5,286.5C 339.833,287.167 341.167,287.833 342.5,288.5C 333.979,291.338 325.312,293.671 316.5,295.5C 317.78,294.069 319.447,293.402 321.5,293.5C 321.714,291.856 321.38,290.356 320.5,289C 318,288.833 315.5,288.667 313,288.5C 306.628,290.216 300.128,291.216 293.5,291.5C 294.209,290.596 295.209,290.263 296.5,290.5C 303.268,288.056 310.268,286.723 317.5,286.5 Z"/></g>
<g><path style="opacity:1" fill="#9a936f" d="M 338.5,286.5 C 340.924,286.192 343.257,286.526 345.5,287.5C 344.675,288.386 343.675,288.719 342.5,288.5C 341.167,287.833 339.833,287.167 338.5,286.5 Z"/></g>
<g><path style="opacity:1" fill="#120e0b" d="M 376.5,166.5 C 378.087,173.876 382.587,176.876 390,175.5C 391.888,179.996 393.055,184.663 393.5,189.5C 393.517,197.582 393.017,205.582 392,213.5C 396.02,202.842 397.353,191.842 396,180.5C 395.434,178.277 394.6,176.277 393.5,174.5C 393.5,173.833 393.5,173.167 393.5,172.5C 394.404,171.791 394.737,170.791 394.5,169.5C 395.92,171.886 396.92,174.553 397.5,177.5C 398.518,176.807 399.518,176.141 400.5,175.5C 400.67,176.822 400.337,177.989 399.5,179C 402.171,178.194 404.838,178.361 407.5,179.5C 407.737,180.791 407.404,181.791 406.5,182.5C 404.408,180.193 402.242,180.526 400,183.5C 398.621,188.036 398.121,192.703 398.5,197.5C 400.664,197.279 402.33,196.279 403.5,194.5C 401.814,197.537 402.814,198.87 406.5,198.5C 401.271,200.56 397.437,204.226 395,209.5C 393.782,213.33 394.949,215.996 398.5,217.5C 397.192,218.232 395.858,219.066 394.5,220C 395.448,220.483 396.448,220.649 397.5,220.5C 401.804,222.438 404.137,225.771 404.5,230.5C 402.769,237.297 399.936,243.63 396,249.5C 395.19,253.358 395.357,257.024 396.5,260.5C 398.07,264.784 401.07,267.45 405.5,268.5C 405.167,269.167 404.833,269.833 404.5,270.5C 400.571,271.431 397.905,273.764 396.5,277.5C 395.839,279.134 395.506,280.967 395.5,283C 395.3,285.866 395.967,288.366 397.5,290.5C 399.4,294.633 401.567,298.633 404,302.5C 405.724,310.017 403.224,315.517 396.5,319C 397.833,319.667 399.167,319.667 400.5,319C 404.528,316.097 406.861,312.264 407.5,307.5C 408.865,304.041 408.531,300.708 406.5,297.5C 404.265,293.031 402.598,288.364 401.5,283.5C 401.119,280.675 402.119,278.509 404.5,277C 412.452,275.762 419.286,277.929 425,283.5C 427.364,287.546 426.53,290.713 422.5,293C 416.191,293.881 412.524,291.047 411.5,284.5C 410.234,291.944 413.401,296.277 421,297.5C 432.303,293.987 434.47,287.321 427.5,277.5C 428.496,277.586 429.329,277.252 430,276.5C 430.21,274.942 430.71,273.609 431.5,272.5C 431.992,274.819 432.992,276.819 434.5,278.5C 436.606,284.432 436.94,290.432 435.5,296.5C 430.089,301.222 423.755,302.722 416.5,301C 415.667,300.167 414.833,299.333 414,298.5C 413.889,305.937 411.056,312.103 405.5,317C 408.098,316.874 410.431,315.874 412.5,314C 413.328,312.008 414.661,310.508 416.5,309.5C 416.374,311.2 415.707,312.7 414.5,314C 414.645,314.772 414.978,315.439 415.5,316C 413.13,318.242 410.464,319.742 407.5,320.5C 403.692,320.163 400.026,320.663 396.5,322C 394.604,323.808 394.104,325.975 395,328.5C 398.22,336.589 404.054,340.256 412.5,339.5C 408.881,339.881 405.548,340.881 402.5,342.5C 401.292,341.766 399.959,341.433 398.5,341.5C 398.118,346.367 398.785,351.034 400.5,355.5C 398.195,357.045 397.862,359.045 399.5,361.5C 397.821,361.285 396.821,361.952 396.5,363.5C 394.825,366.507 394.159,369.84 394.5,373.5C 393.842,372.602 393.176,371.602 392.5,370.5C 390.729,371.035 390.396,371.869 391.5,373C 390.255,373.791 388.922,374.291 387.5,374.5C 392.08,369.003 394.746,362.67 395.5,355.5C 397.206,345.014 396.039,334.681 392,324.5C 391.802,326.382 391.302,328.048 390.5,329.5C 390.361,327.663 389.694,327.33 388.5,328.5C 385.265,336.639 381.265,344.306 376.5,351.5C 381.716,352.146 385.883,350.146 389,345.5C 390.477,341.304 391.311,336.971 391.5,332.5C 391.369,331.761 391.536,331.094 392,330.5C 393.304,336.423 393.804,342.423 393.5,348.5C 393.29,353.009 392.29,357.342 390.5,361.5C 387.92,362.549 385.254,363.216 382.5,363.5C 382.36,361.876 383.027,360.71 384.5,360C 383.944,359.617 383.611,359.117 383.5,358.5C 382.751,357.469 382.085,356.302 381.5,355C 378.411,354.852 375.578,354.019 373,352.5C 372.5,352.667 372,352.833 371.5,353C 372.973,353.71 373.64,354.876 373.5,356.5C 372.5,356.5 371.5,356.5 370.5,356.5C 370.5,357.833 370.5,359.167 370.5,360.5C 371.5,360.5 372.5,360.5 373.5,360.5C 372.478,362.544 371.478,364.544 370.5,366.5C 371.169,362.324 369.669,360.991 366,362.5C 365.506,364.134 365.34,365.801 365.5,367.5C 366.833,367.5 368.167,367.5 369.5,367.5C 368.1,368.1 367.1,369.1 366.5,370.5C 365.18,369.058 363.514,368.392 361.5,368.5C 362.209,367.596 363.209,367.263 364.5,367.5C 364.041,363.927 365.041,360.927 367.5,358.5C 366.672,357.585 365.672,356.919 364.5,356.5C 363.274,357.363 361.94,357.363 360.5,356.5C 365.25,350.423 369.583,344.09 373.5,337.5C 384.068,321.129 390.068,303.129 391.5,283.5C 391.833,282.167 392.167,280.833 392.5,279.5C 393.656,272.011 393.822,264.345 393,256.5C 392.811,252.233 391.977,248.233 390.5,244.5C 390.44,241.659 389.774,238.993 388.5,236.5C 386.534,226.953 383.201,217.953 378.5,209.5C 374.425,200.347 369.092,192.014 362.5,184.5C 363.496,184.586 364.329,184.252 365,183.5C 365.718,186.234 367.218,186.9 369.5,185.5C 369.218,183.013 369.218,180.347 369.5,177.5C 368.209,177.737 367.209,177.404 366.5,176.5C 367.833,176.5 369.167,176.5 370.5,176.5C 370.5,175.167 370.5,173.833 370.5,172.5C 371.789,173.501 373.122,173.334 374.5,172C 375.109,170.052 375.776,168.218 376.5,166.5 Z"/></g>
<g><path style="opacity:1" fill="#b1a47b" d="M 396.5,277.5 C 396.467,281.869 396.8,286.202 397.5,290.5C 395.967,288.366 395.3,285.866 395.5,283C 395.506,280.967 395.839,279.134 396.5,277.5 Z"/></g>
<g><path style="opacity:1" fill="#d3b568" d="M 376.5,185.5 C 390.089,189.012 394.423,197.345 389.5,210.5C 385.411,201.987 381.078,193.654 376.5,185.5 Z"/></g>
<g><path style="opacity:1" fill="#95835c" d="M 393.5,174.5 C 394.6,176.277 395.434,178.277 396,180.5C 397.353,191.842 396.02,202.842 392,213.5C 393.017,205.582 393.517,197.582 393.5,189.5C 394.314,191.631 394.814,193.964 395,196.5C 395.848,189.051 395.348,181.718 393.5,174.5 Z"/></g>
<g><path style="opacity:1" fill="#c0a566" d="M 383.5,179.5 C 385.837,181.666 388.337,183.666 391,185.5C 391.781,186.944 391.614,188.277 390.5,189.5C 385.681,187.851 383.348,184.518 383.5,179.5 Z"/></g>
<g><path style="opacity:1" fill="#bda268" d="M 370.5,177.5 C 371.833,177.5 373.167,177.5 374.5,177.5C 374.5,178.833 374.5,180.167 374.5,181.5C 373.167,181.5 371.833,181.5 370.5,181.5C 370.5,180.167 370.5,178.833 370.5,177.5 Z"/></g>
<g><path style="opacity:1" fill="#e3d088" d="M 416.5,282.5 C 422.191,282.554 423.858,285.221 421.5,290.5C 414.409,291.531 412.742,288.864 416.5,282.5 Z"/></g>
<g><path style="opacity:1" fill="#d6c58a" d="M 91.5,295.5 C 93.4832,295.843 94.8166,295.176 95.5,293.5C 103.086,294.414 106.586,291.08 106,283.5C 108.5,288.645 107.333,292.812 102.5,296C 98.6083,298.106 94.9416,297.94 91.5,295.5 Z"/></g>
<g><path style="opacity:1" fill="#edd686" d="M 134.5,263.5 C 134.044,278.541 136.044,293.207 140.5,307.5C 140.265,308.097 139.765,308.43 139,308.5C 137.7,307.293 136.2,306.626 134.5,306.5C 134.663,304.143 134.497,301.81 134,299.5C 133.047,302.432 132.547,305.432 132.5,308.5C 131.442,307.4 130.608,306.066 130,304.5C 128.518,297.218 127.351,289.885 126.5,282.5C 127.222,282.918 127.722,283.584 128,284.5C 128.249,283.376 128.749,282.376 129.5,281.5C 130.541,283.991 131.374,283.991 132,281.5C 132.517,275.311 133.35,269.311 134.5,263.5 Z"/></g>
<g><path style="opacity:1" fill="#1d1913" d="M 317.5,286.5 C 317.5,286.167 317.5,285.833 317.5,285.5C 327.172,285.334 336.839,285.5 346.5,286C 348.42,287.122 350.42,287.956 352.5,288.5C 321.935,298.186 291.101,307.186 260,315.5C 229.946,307.201 200.112,298.534 170.5,289.5C 173.999,290.444 177.332,290.444 180.5,289.5C 202.394,296.141 224.394,302.474 246.5,308.5C 249.799,310.483 253.466,311.483 257.5,311.5C 258.946,312.613 260.613,312.78 262.5,312C 279.735,307.279 296.735,302.113 313.5,296.5C 314.791,296.737 315.791,296.404 316.5,295.5C 325.312,293.671 333.979,291.338 342.5,288.5C 343.675,288.719 344.675,288.386 345.5,287.5C 343.257,286.526 340.924,286.192 338.5,286.5C 331.5,286.5 324.5,286.5 317.5,286.5 Z"/></g>
<g><path style="opacity:1" fill="#e5cc81" d="M 170.5,289.5 C 200.112,298.534 229.946,307.201 260,315.5C 291.101,307.186 321.935,298.186 352.5,288.5C 354.536,290.206 355.536,292.539 355.5,295.5C 342.372,298.699 329.372,302.365 316.5,306.5C 304.799,309.509 293.132,312.675 281.5,316C 275.539,317.704 269.872,319.871 264.5,322.5C 259.699,322.65 255.033,321.984 250.5,320.5C 240.276,317.023 229.943,313.69 219.5,310.5C 217.485,309.076 215.152,308.41 212.5,308.5C 208.214,307.293 203.88,306.293 199.5,305.5C 188.346,301.545 177.013,298.212 165.5,295.5C 165.39,292.941 166.056,290.608 167.5,288.5C 168.417,289.127 169.417,289.461 170.5,289.5 Z"/></g>
<g><path style="opacity:1" fill="#f4d981" d="M 316.5,295.5 C 315.791,296.404 314.791,296.737 313.5,296.5C 310.813,296.336 308.146,296.503 305.5,297C 299.846,300.168 293.846,301.335 287.5,300.5C 283.086,302.071 278.586,303.404 274,304.5C 271.976,304.2 271.476,303.367 272.5,302C 275.994,299.823 279.661,297.823 283.5,296C 287.478,294.427 291.478,294.094 295.5,295C 294.377,293.956 293.044,293.29 291.5,293C 292.416,292.722 293.082,292.222 293.5,291.5C 300.128,291.216 306.628,290.216 313,288.5C 315.5,288.667 318,288.833 320.5,289C 321.38,290.356 321.714,291.856 321.5,293.5C 319.447,293.402 317.78,294.069 316.5,295.5 Z"/></g>
<g><path style="opacity:1" fill="#4d4531" d="M 225.5,290.5 C 228.152,290.41 230.485,291.076 232.5,292.5C 229.848,292.59 227.515,291.924 225.5,290.5 Z"/></g>
<g><path style="opacity:1" fill="#eed383" d="M 179.5,286.5 C 187.167,286.5 194.833,286.5 202.5,286.5C 206.98,287.521 211.647,288.187 216.5,288.5C 219.5,289.167 222.5,289.833 225.5,290.5C 227.515,291.924 229.848,292.59 232.5,292.5C 242.344,296.424 251.678,301.424 260.5,307.5C 270.631,300.267 281.631,294.934 293.5,291.5C 293.082,292.222 292.416,292.722 291.5,293C 293.044,293.29 294.377,293.956 295.5,295C 291.478,294.094 287.478,294.427 283.5,296C 279.661,297.823 275.994,299.823 272.5,302C 271.476,303.367 271.976,304.2 274,304.5C 278.586,303.404 283.086,302.071 287.5,300.5C 293.846,301.335 299.846,300.168 305.5,297C 308.146,296.503 310.813,296.336 313.5,296.5C 296.735,302.113 279.735,307.279 262.5,312C 260.613,312.78 258.946,312.613 257.5,311.5C 254.093,309.926 250.427,308.926 246.5,308.5C 224.394,302.474 202.394,296.141 180.5,289.5C 179.391,289.443 178.391,289.11 177.5,288.5C 178.167,287.833 178.833,287.167 179.5,286.5 Z"/></g>
<g><path style="opacity:1" fill="#796c50" d="M 406.5,297.5 C 408.531,300.708 408.865,304.041 407.5,307.5C 407.384,304.14 407.051,300.807 406.5,297.5 Z"/></g>
<g><path style="opacity:1" fill="#d9c381" d="M 435.5,296.5 C 435.141,298.371 434.141,299.871 432.5,301C 429.092,301.98 425.758,303.147 422.5,304.5C 425.428,305.484 428.428,305.817 431.5,305.5C 427.812,306.762 423.978,306.762 420,305.5C 418.144,306.202 416.977,307.536 416.5,309.5C 414.661,310.508 413.328,312.008 412.5,314C 410.431,315.874 408.098,316.874 405.5,317C 411.056,312.103 413.889,305.937 414,298.5C 414.833,299.333 415.667,300.167 416.5,301C 423.755,302.722 430.089,301.222 435.5,296.5 Z"/></g>
<g><path style="opacity:1" fill="#e4cf85" d="M 84.5,277.5 C 83.0989,281.164 82.4322,284.997 82.5,289C 81.7809,293.464 83.1142,297.131 86.5,300C 92.8257,302.409 98.8257,301.909 104.5,298.5C 105.474,300.743 105.808,303.076 105.5,305.5C 105.923,307.781 105.256,309.448 103.5,310.5C 102.386,309.115 101.386,307.615 100.5,306C 83.2476,309.731 74.7476,302.898 75,285.5C 76.1979,281.76 78.3645,278.76 81.5,276.5C 82.4959,276.586 83.3292,276.252 84,275.5C 84.4643,276.094 84.631,276.761 84.5,277.5 Z"/></g>
<g><path style="opacity:1" fill="#c1ad7e" d="M 105.5,305.5 C 107.398,310.294 110.065,314.628 113.5,318.5C 109.397,316.784 106.064,314.117 103.5,310.5C 105.256,309.448 105.923,307.781 105.5,305.5 Z"/></g>
<g><path style="opacity:1" fill="#b9a87e" d="M 114.5,311.5 C 115.558,312.6 116.392,313.934 117,315.5C 117.816,316.823 118.983,317.489 120.5,317.5C 120.611,318.117 120.944,318.617 121.5,319C 117.36,319.366 114.693,317.533 113.5,313.5C 114.338,313.158 114.672,312.492 114.5,311.5 Z"/></g>
<g><path style="opacity:1" fill="#e7c878" d="M 140.5,307.5 C 143.039,314.594 146.039,321.594 149.5,328.5C 150.724,331.485 150.391,334.151 148.5,336.5C 149.631,337.604 150.465,337.271 151,335.5C 152.618,337.234 154.118,339.067 155.5,341C 154.623,342.867 153.123,344.034 151,344.5C 150.027,342.608 149.36,340.608 149,338.5C 148.329,339.252 147.496,339.586 146.5,339.5C 139.543,330.332 134.876,319.999 132.5,308.5C 132.547,305.432 133.047,302.432 134,299.5C 134.497,301.81 134.663,304.143 134.5,306.5C 136.2,306.626 137.7,307.293 139,308.5C 139.765,308.43 140.265,308.097 140.5,307.5 Z"/></g>
<g><path style="opacity:1" fill="#9c8f64" d="M 108.5,321.5 C 108.082,322.222 107.416,322.722 106.5,323C 107.056,323.383 107.389,323.883 107.5,324.5C 103.357,322.686 103.69,321.686 108.5,321.5 Z"/></g>
<g><path style="opacity:1" fill="#e2c273" d="M 112.5,320.5 C 116.753,319.807 120.419,320.807 123.5,323.5C 123.909,329.012 121.909,333.345 117.5,336.5C 114.243,336.639 111.076,337.306 108,338.5C 104.912,338.914 103.078,337.58 102.5,334.5C 104.766,333.686 107.1,333.186 109.5,333C 111.553,331.322 111.887,329.489 110.5,327.5C 109.694,326.272 108.694,325.272 107.5,324.5C 107.389,323.883 107.056,323.383 106.5,323C 107.416,322.722 108.082,322.222 108.5,321.5C 109.568,320.566 110.901,320.232 112.5,320.5 Z"/></g>
<g><path style="opacity:1" fill="#e7ca79" d="M 391.5,283.5 C 390.068,303.129 384.068,321.129 373.5,337.5C 368.49,336.133 367.323,333.133 370,328.5C 373.284,325.654 374.784,321.987 374.5,317.5C 376.33,312.185 378.164,306.852 380,301.5C 380.762,295.284 381.929,289.284 383.5,283.5C 383.336,286.187 383.503,288.854 384,291.5C 384.75,292.126 385.584,292.626 386.5,293C 384.699,293.317 384.366,293.984 385.5,295C 384.328,296.997 382.995,298.83 381.5,300.5C 383.376,302.048 384.376,304.048 384.5,306.5C 383.5,306.5 382.5,306.5 381.5,306.5C 381.5,307.833 381.5,309.167 381.5,310.5C 383.124,310.64 384.29,309.973 385,308.5C 386.338,304.436 387.672,300.436 389,296.5C 389.333,291.833 389.667,287.167 390,282.5C 390.383,283.056 390.883,283.389 391.5,283.5 Z"/></g>
<g><path style="opacity:1" fill="#958162" d="M 395.5,355.5 C 395.666,350.821 395.499,346.155 395,341.5C 394.814,344.036 394.314,346.369 393.5,348.5C 393.804,342.423 393.304,336.423 392,330.5C 391.536,331.094 391.369,331.761 391.5,332.5C 390.596,331.791 390.263,330.791 390.5,329.5C 391.302,328.048 391.802,326.382 392,324.5C 396.039,334.681 397.206,345.014 395.5,355.5 Z"/></g>
<g><path style="opacity:1" fill="#dcbd73" d="M 407.5,320.5 C 409.593,321.045 411.593,321.878 413.5,323C 409.329,324.45 407.995,327.117 409.5,331C 413.591,332.227 417.091,331.394 420,328.5C 420.164,331.522 419.164,334.189 417,336.5C 415.871,338.141 414.371,339.141 412.5,339.5C 404.054,340.256 398.22,336.589 395,328.5C 394.104,325.975 394.604,323.808 396.5,322C 400.026,320.663 403.692,320.163 407.5,320.5 Z"/></g>
<g><path style="opacity:1" fill="#c9b277" d="M 110.5,327.5 C 111.887,329.489 111.553,331.322 109.5,333C 107.1,333.186 104.766,333.686 102.5,334.5C 103.078,337.58 104.912,338.914 108,338.5C 111.076,337.306 114.243,336.639 117.5,336.5C 116.942,337.79 115.942,338.623 114.5,339C 111.854,339.497 109.187,339.664 106.5,339.5C 104.61,339.703 103.11,339.037 102,337.5C 100.247,334.995 98.7467,332.329 97.5,329.5C 97.8333,329.167 98.1667,328.833 98.5,328.5C 100.936,332.08 104.27,333.246 108.5,332C 110.037,330.89 110.703,329.39 110.5,327.5 Z"/></g>
<g><path style="opacity:1" fill="#d8b872" d="M 130.5,328.5 C 133.193,336.888 137.193,344.555 142.5,351.5C 132.085,351.569 127.085,346.069 127.5,335C 127.667,332.833 127.833,330.667 128,328.5C 128.77,327.402 129.603,327.402 130.5,328.5 Z"/></g>
<g><path style="opacity:1" fill="#d2b26d" d="M 118.5,355.5 C 116.703,356.73 114.703,357.396 112.5,357.5C 112.687,353.087 113.354,348.754 114.5,344.5C 118.383,339.009 120.383,339.509 120.5,346C 120.577,349.358 119.911,352.525 118.5,355.5 Z"/></g>
<g><path style="opacity:1" fill="#d7b871" d="M 390.5,329.5 C 390.263,330.791 390.596,331.791 391.5,332.5C 391.311,336.971 390.477,341.304 389,345.5C 385.883,350.146 381.716,352.146 376.5,351.5C 381.265,344.306 385.265,336.639 388.5,328.5C 389.694,327.33 390.361,327.663 390.5,329.5 Z"/></g>
<g><path style="opacity:1" fill="#d6b46f" d="M 402.5,342.5 C 405,347.144 406.334,352.144 406.5,357.5C 404.142,357.747 402.142,357.081 400.5,355.5C 398.785,351.034 398.118,346.367 398.5,341.5C 399.959,341.433 401.292,341.766 402.5,342.5 Z"/></g>
<g><path style="opacity:1" fill="#14100c" d="M 123.5,323.5 C 127.931,322.53 130.265,324.197 130.5,328.5C 129.603,327.402 128.77,327.402 128,328.5C 127.833,330.667 127.667,332.833 127.5,335C 127.085,346.069 132.085,351.569 142.5,351.5C 143.404,352.209 143.737,353.209 143.5,354.5C 145.483,354.157 146.817,354.824 147.5,356.5C 149.176,357.183 149.843,358.517 149.5,360.5C 150.791,360.263 151.791,360.596 152.5,361.5C 148.323,360.842 146.823,362.508 148,366.5C 151.466,368.35 153.299,367.35 153.5,363.5C 154.434,364.568 154.768,365.901 154.5,367.5C 155.791,367.263 156.791,367.596 157.5,368.5C 152.932,368.083 151.432,370.083 153,374.5C 156.758,376.473 158.925,375.473 159.5,371.5C 160.222,371.918 160.722,372.584 161,373.5C 161.333,372.5 161.667,371.5 162,370.5C 162.627,372.927 163.794,374.927 165.5,376.5C 164.022,377.448 163.022,378.781 162.5,380.5C 162.799,378.396 162.466,376.396 161.5,374.5C 159.293,376.683 156.626,378.016 153.5,378.5C 152.855,380.432 151.521,381.599 149.5,382C 150.598,382.77 150.598,383.603 149.5,384.5C 144.102,379.284 138.436,374.284 132.5,369.5C 132.5,368.833 132.833,368.5 133.5,368.5C 135.924,370.243 138.591,371.576 141.5,372.5C 141.833,371.833 142.167,371.167 142.5,370.5C 140.825,365.828 137.492,363.495 132.5,363.5C 131.391,362.71 130.058,362.21 128.5,362C 127.915,360.698 127.249,359.531 126.5,358.5C 126.037,355.779 125.371,353.112 124.5,350.5C 124.013,342.144 125.013,333.978 127.5,326C 126.648,324.102 125.981,324.269 125.5,326.5C 122.589,336.846 121.922,347.179 123.5,357.5C 124.297,361.223 125.297,364.89 126.5,368.5C 124.797,367.34 124.131,368.007 124.5,370.5C 123.343,367.727 122.676,364.727 122.5,361.5C 121.041,361.433 119.708,361.766 118.5,362.5C 118.119,360.058 118.786,359.391 120.5,360.5C 121.833,358.5 121.833,356.5 120.5,354.5C 119.817,354.863 119.15,355.196 118.5,355.5C 119.911,352.525 120.577,349.358 120.5,346C 120.383,339.509 118.383,339.009 114.5,344.5C 114.489,342.983 113.823,341.816 112.5,341C 110.292,340.809 108.292,340.309 106.5,339.5C 109.187,339.664 111.854,339.497 114.5,339C 115.942,338.623 116.942,337.79 117.5,336.5C 121.909,333.345 123.909,329.012 123.5,323.5 Z"/></g>
<g><path style="opacity:1" fill="#b69f74" d="M 124.5,350.5 C 123.532,352.607 123.198,354.941 123.5,357.5C 121.922,347.179 122.589,336.846 125.5,326.5C 125.981,324.269 126.648,324.102 127.5,326C 125.013,333.978 124.013,342.144 124.5,350.5 Z"/></g>
<g><path style="opacity:1" fill="#ceb475" d="M 383.5,358.5 C 383.131,353.523 385.465,350.523 390.5,349.5C 391.583,350.365 391.749,351.365 391,352.5C 388.914,355.094 386.414,357.094 383.5,358.5 Z"/></g>
<g><path style="opacity:1" fill="#c7ac6f" d="M 126.5,348.5 C 130.767,349.971 133.767,352.804 135.5,357C 135.167,357.5 134.833,358 134.5,358.5C 129.893,356.575 127.227,353.242 126.5,348.5 Z"/></g>
<g><path style="opacity:1" fill="#ccb275" d="M 145.5,293.5 C 147.637,298.96 149.471,304.627 151,310.5C 171.229,358.046 207.229,382.713 259,384.5C 318.299,381.35 356.133,351.35 372.5,294.5C 372.34,296.199 372.506,297.866 373,299.5C 373.278,298.584 373.778,297.918 374.5,297.5C 361.899,342.269 333.232,371.436 288.5,385C 233.964,395.832 190.798,378.666 159,333.5C 152.177,321.854 147.01,309.521 143.5,296.5C 144.117,296.611 144.617,296.944 145,297.5C 145.49,296.207 145.657,294.873 145.5,293.5 Z"/></g>
<g><path style="opacity:1" fill="#dbb970" d="M 295.5,332.5 C 301.088,338.396 307.254,343.73 314,348.5C 313.6,350.939 312.267,352.939 310,354.5C 307.61,353.722 305.443,352.555 303.5,351C 296.978,345.969 290.644,340.803 284.5,335.5C 287.657,337.506 290.99,338.339 294.5,338C 295.078,342.172 296.411,342.505 298.5,339C 296.084,337.526 295.084,335.36 295.5,332.5 Z"/></g>
<g><path style="opacity:1" fill="#e2c375" d="M 232.5,317.5 C 234.515,318.924 236.848,319.59 239.5,319.5C 243.51,320.893 247.51,322.393 251.5,324C 250.619,324.708 249.953,325.542 249.5,326.5C 236.786,336.279 223.953,345.946 211,355.5C 209.257,353.679 207.757,351.679 206.5,349.5C 210.428,345.531 214.761,342.031 219.5,339C 222.021,336.78 224.188,334.28 226,331.5C 228.711,323.226 225.877,318.059 217.5,316C 214.167,315.333 210.833,315.333 207.5,316C 201.689,320.31 196.023,324.81 190.5,329.5C 188.833,327.5 187.167,325.5 185.5,323.5C 191.175,319.154 196.508,314.488 201.5,309.5C 202.15,309.196 202.817,308.863 203.5,308.5C 213.329,311.386 222.995,314.386 232.5,317.5 Z"/></g>
<g><path style="opacity:1" fill="#ebc873" d="M 285.5,318.5 C 288.5,318.5 291.5,318.5 294.5,318.5C 292.411,322.328 292.078,326.328 293.5,330.5C 293.747,331.713 294.414,332.38 295.5,332.5C 295.084,335.36 296.084,337.526 298.5,339C 296.411,342.505 295.078,342.172 294.5,338C 290.99,338.339 287.657,337.506 284.5,335.5C 282.717,331.92 280.05,329.254 276.5,327.5C 277.609,325.786 276.942,325.119 274.5,325.5C 274.5,324.5 274.5,323.5 274.5,322.5C 278.964,323.091 282.631,321.758 285.5,318.5 Z"/></g>
<g><path style="opacity:1" fill="#d6ba7a" d="M 285.5,318.5 C 282.631,321.758 278.964,323.091 274.5,322.5C 274.5,323.5 274.5,324.5 274.5,325.5C 276.942,325.119 277.609,325.786 276.5,327.5C 280.05,329.254 282.717,331.92 284.5,335.5C 279.214,332.212 274.214,328.546 269.5,324.5C 270.903,323.069 272.569,321.902 274.5,321C 278.285,320.593 281.952,319.759 285.5,318.5 Z"/></g>
<g><path style="opacity:1" fill="#d1ba7c" d="M 309.5,311.5 C 307.723,312.6 305.723,313.434 303.5,314C 307.872,314.421 312.205,315.088 316.5,316C 317.252,316.671 317.586,317.504 317.5,318.5C 311.69,315.391 305.69,314.891 299.5,317C 294.575,321.187 293.242,326.354 295.5,332.5C 294.414,332.38 293.747,331.713 293.5,330.5C 292.078,326.328 292.411,322.328 294.5,318.5C 291.5,318.5 288.5,318.5 285.5,318.5C 293.329,315.873 301.329,313.54 309.5,311.5 Z"/></g>
<g><path style="opacity:1" fill="#5e5236" d="M 232.5,317.5 C 235.152,317.41 237.485,318.076 239.5,319.5C 236.848,319.59 234.515,318.924 232.5,317.5 Z"/></g>
<g><path style="opacity:1" fill="#e8cb7d" d="M 318.5,309.5 C 324.325,313.827 329.658,318.66 334.5,324C 333.667,326.167 332.167,327.667 330,328.5C 325.368,325.696 321.201,322.363 317.5,318.5C 317.586,317.504 317.252,316.671 316.5,316C 312.205,315.088 307.872,314.421 303.5,314C 305.723,313.434 307.723,312.6 309.5,311.5C 312.303,310.072 315.303,309.405 318.5,309.5 Z"/></g>
<g><path style="opacity:1" fill="#211c16" d="M 199.5,305.5 C 203.88,306.293 208.214,307.293 212.5,308.5C 214.515,309.924 216.848,310.59 219.5,310.5C 229.943,313.69 240.276,317.023 250.5,320.5C 249.448,320.351 248.448,320.517 247.5,321C 249.651,321.265 251.318,322.265 252.5,324C 252.252,325.749 251.252,326.582 249.5,326.5C 249.953,325.542 250.619,324.708 251.5,324C 247.51,322.393 243.51,320.893 239.5,319.5C 237.485,318.076 235.152,317.41 232.5,317.5C 222.995,314.386 213.329,311.386 203.5,308.5C 202.817,308.863 202.15,309.196 201.5,309.5C 200.205,308.969 199.538,307.636 199.5,305.5 Z"/></g>
<g><path style="opacity:1" fill="#28231a" d="M 316.5,306.5 C 316.082,307.222 315.416,307.722 314.5,308C 316.058,308.21 317.391,308.71 318.5,309.5C 315.303,309.405 312.303,310.072 309.5,311.5C 301.329,313.54 293.329,315.873 285.5,318.5C 281.952,319.759 278.285,320.593 274.5,321C 272.569,321.902 270.903,323.069 269.5,324.5C 268.221,323.032 266.554,322.365 264.5,322.5C 269.872,319.871 275.539,317.704 281.5,316C 293.132,312.675 304.799,309.509 316.5,306.5 Z"/></g>
<g><path style="opacity:1" fill="#877a51" d="M 246.5,308.5 C 250.427,308.926 254.093,309.926 257.5,311.5C 253.466,311.483 249.799,310.483 246.5,308.5 Z"/></g>
<g><path style="opacity:1" fill="#9d9164" d="M 212.5,308.5 C 215.152,308.41 217.485,309.076 219.5,310.5C 216.848,310.59 214.515,309.924 212.5,308.5 Z"/></g>
<g><path style="opacity:1" fill="#e0bc6e" d="M 149.5,328.5 C 161.031,347.699 176.031,363.699 194.5,376.5C 192.549,376.773 191.049,376.107 190,374.5C 188.204,375.767 186.371,375.767 184.5,374.5C 183.5,374.833 182.833,375.5 182.5,376.5C 184.421,377.324 185.754,378.657 186.5,380.5C 169.807,370.14 156.474,356.473 146.5,339.5C 147.496,339.586 148.329,339.252 149,338.5C 149.36,340.608 150.027,342.608 151,344.5C 153.123,344.034 154.623,342.867 155.5,341C 154.118,339.067 152.618,337.234 151,335.5C 150.465,337.271 149.631,337.604 148.5,336.5C 150.391,334.151 150.724,331.485 149.5,328.5 Z"/></g>
<g><path style="opacity:1" fill="#baa672" d="M 147.5,356.5 C 149.293,359.987 148.293,361.487 144.5,361C 142.839,357.85 143.839,356.35 147.5,356.5 Z"/></g>
<g><path style="opacity:1" fill="#c6af7d" d="M 373.5,356.5 C 374.833,357.833 374.833,359.167 373.5,360.5C 372.5,360.5 371.5,360.5 370.5,360.5C 370.5,359.167 370.5,357.833 370.5,356.5C 371.5,356.5 372.5,356.5 373.5,356.5 Z"/></g>
<g><path style="opacity:1" fill="#d1b373" d="M 370.5,366.5 C 370.5,367.167 370.167,367.5 369.5,367.5C 368.167,367.5 366.833,367.5 365.5,367.5C 365.34,365.801 365.506,364.134 366,362.5C 369.669,360.991 371.169,362.324 370.5,366.5 Z"/></g>
<g><path style="opacity:1" fill="#967c50" d="M 126.5,358.5 C 127.249,359.531 127.915,360.698 128.5,362C 130.058,362.21 131.391,362.71 132.5,363.5C 131.624,363.369 130.957,363.702 130.5,364.5C 131.524,365.852 132.524,367.185 133.5,368.5C 132.833,368.5 132.5,368.833 132.5,369.5C 129.192,366.55 127.192,362.884 126.5,358.5 Z"/></g>
<g><path style="opacity:1" fill="#caae73" d="M 152.5,361.5 C 152.833,362.167 153.167,362.833 153.5,363.5C 153.299,367.35 151.466,368.35 148,366.5C 146.823,362.508 148.323,360.842 152.5,361.5 Z"/></g>
<g><path style="opacity:1" fill="#d5b673" d="M 395.5,355.5 C 394.746,362.67 392.08,369.003 387.5,374.5C 381.275,379.04 375.775,384.373 371,390.5C 368.394,396.213 366.894,402.213 366.5,408.5C 364.912,400.663 365.412,392.996 368,385.5C 374.97,379.274 381.803,372.94 388.5,366.5C 388.333,366.167 388.167,365.833 388,365.5C 384.666,368.107 381.166,370.441 377.5,372.5C 376.064,367.907 377.73,364.907 382.5,363.5C 385.254,363.216 387.92,362.549 390.5,361.5C 392.29,357.342 393.29,353.009 393.5,348.5C 394.314,346.369 394.814,344.036 395,341.5C 395.499,346.155 395.666,350.821 395.5,355.5 Z"/></g>
<g><path style="opacity:1" fill="#877450" d="M 396.5,363.5 C 395.838,367.466 395.505,371.466 395.5,375.5C 394.662,375.158 394.328,374.492 394.5,373.5C 394.159,369.84 394.825,366.507 396.5,363.5 Z"/></g>
<g><path style="opacity:1" fill="#d2b273" d="M 132.5,363.5 C 137.492,363.495 140.825,365.828 142.5,370.5C 142.167,371.167 141.833,371.833 141.5,372.5C 138.591,371.576 135.924,370.243 133.5,368.5C 132.524,367.185 131.524,365.852 130.5,364.5C 130.957,363.702 131.624,363.369 132.5,363.5 Z"/></g>
<g><path style="opacity:1" fill="#daba76" d="M 157.5,368.5 C 158.906,368.973 159.573,369.973 159.5,371.5C 158.925,375.473 156.758,376.473 153,374.5C 151.432,370.083 152.932,368.083 157.5,368.5 Z"/></g>
<g><path style="opacity:1" fill="#cfb172" d="M 361.5,368.5 C 363.514,368.392 365.18,369.058 366.5,370.5C 366.917,375.068 364.917,376.568 360.5,375C 357.836,372.468 358.17,370.302 361.5,368.5 Z"/></g>
<g><path style="opacity:1" fill="#dabb73" d="M 124.5,370.5 C 124.328,375.177 122.328,378.844 118.5,381.5C 117.21,375.112 117.21,368.778 118.5,362.5C 119.708,361.766 121.041,361.433 122.5,361.5C 122.676,364.727 123.343,367.727 124.5,370.5 Z"/></g>
<g><path style="opacity:1" fill="#958155" d="M 399.5,361.5 C 399.783,362.289 400.283,362.956 401,363.5C 401.83,369.528 401.664,375.528 400.5,381.5C 399.893,381.376 399.56,381.043 399.5,380.5C 400.651,375.35 400.817,370.016 400,364.5C 399.047,362.627 397.88,362.294 396.5,363.5C 396.821,361.952 397.821,361.285 399.5,361.5 Z"/></g>
<g><path style="opacity:1" fill="#e2be71" d="M 374.5,317.5 C 374.784,321.987 373.284,325.654 370,328.5C 367.323,333.133 368.49,336.133 373.5,337.5C 369.583,344.09 365.25,350.423 360.5,356.5C 342.115,377.845 319.115,391.845 291.5,398.5C 288.848,398.41 286.515,399.076 284.5,400.5C 281.873,401.092 279.206,401.425 276.5,401.5C 276.611,400.883 276.944,400.383 277.5,400C 283.454,398.452 289.454,397.119 295.5,396C 298.179,394.211 298.013,393.045 295,392.5C 292.853,392.044 290.686,391.711 288.5,391.5C 280.003,393.876 271.336,394.876 262.5,394.5C 257.654,394.499 252.988,394.166 248.5,393.5C 306.934,395.007 348.934,369.674 374.5,317.5 Z"/></g>
<g><path style="opacity:1" fill="#e9c377" d="M 399.5,380.5 C 397.003,379.871 395.67,378.204 395.5,375.5C 395.505,371.466 395.838,367.466 396.5,363.5C 397.88,362.294 399.047,362.627 400,364.5C 400.817,370.016 400.651,375.35 399.5,380.5 Z"/></g>
<g><path style="opacity:1" fill="#dcbb76" d="M 124.5,350.5 C 125.371,353.112 126.037,355.779 126.5,358.5C 127.192,362.884 129.192,366.55 132.5,369.5C 138.436,374.284 144.102,379.284 149.5,384.5C 153.06,390.959 154.394,397.959 153.5,405.5C 152.778,405.918 152.278,406.584 152,407.5C 151.809,405.292 151.309,403.292 150.5,401.5C 149.697,396.924 148.197,392.59 146,388.5C 138.612,382.586 132.112,375.919 126.5,368.5C 125.297,364.89 124.297,361.223 123.5,357.5C 123.198,354.941 123.532,352.607 124.5,350.5 Z"/></g>
<g><path style="opacity:1" fill="#ebc572" d="M 194.5,376.5 C 211.336,385.778 229.336,391.445 248.5,393.5C 252.988,394.166 257.654,394.499 262.5,394.5C 271.336,394.876 280.003,393.876 288.5,391.5C 290.686,391.711 292.853,392.044 295,392.5C 298.013,393.045 298.179,394.211 295.5,396C 289.454,397.119 283.454,398.452 277.5,400C 276.944,400.383 276.611,400.883 276.5,401.5C 276.167,401.5 275.833,401.5 275.5,401.5C 260.079,401.929 244.745,401.263 229.5,399.5C 213.749,396.119 199.416,389.786 186.5,380.5C 185.754,378.657 184.421,377.324 182.5,376.5C 182.833,375.5 183.5,374.833 184.5,374.5C 186.371,375.767 188.204,375.767 190,374.5C 191.049,376.107 192.549,376.773 194.5,376.5 Z"/></g>
<g><path style="opacity:1" fill="#e7c475" d="M 383.5,379.5 C 388.337,380.641 390.337,383.807 389.5,389C 388.024,396.798 385.524,404.298 382,411.5C 377.735,405.498 376.402,398.831 378,391.5C 379.574,387.354 381.407,383.354 383.5,379.5 Z"/></g>
<g><path style="opacity:1" fill="#857b5d" d="M 343.5,391.5 C 343.5,390.833 343.167,390.5 342.5,390.5C 342.844,387.438 343.511,384.438 344.5,381.5C 345.84,385.097 345.507,388.43 343.5,391.5 Z"/></g>
<g><path style="opacity:1" fill="#ceaf6f" d="M 356.5,407.5 C 356.666,403.486 356.499,399.486 356,395.5C 355.333,394.167 354.667,394.167 354,395.5C 353.833,394.5 353.667,393.5 353.5,392.5C 354.332,389.518 354.499,386.518 354,383.5C 352.156,386.533 351.156,389.866 351,393.5C 349.961,394.71 348.794,395.71 347.5,396.5C 349.44,390.971 350.94,385.304 352,379.5C 352.368,378.09 353.201,377.09 354.5,376.5C 356.077,383.638 357.411,390.805 358.5,398C 358.672,401.477 358.006,404.644 356.5,407.5 Z"/></g>
<g><path style="opacity:1" fill="#e5c272" d="M 131.5,379.5 C 133.39,379.297 134.89,379.963 136,381.5C 143.005,391.477 143.172,401.477 136.5,411.5C 134.287,405.404 131.787,399.404 129,393.5C 127.911,388.444 128.744,383.778 131.5,379.5 Z"/></g>
<g><path style="opacity:1" fill="#d1b574" d="M 165.5,376.5 C 167.09,381.361 168.257,386.361 169,391.5C 170.549,395.87 173.049,399.537 176.5,402.5C 174.303,401.155 171.97,399.989 169.5,399C 170.711,398.107 170.711,397.274 169.5,396.5C 168.749,397.376 168.249,398.376 168,399.5C 167.469,393.829 166.969,388.162 166.5,382.5C 165.5,382.5 164.5,382.5 163.5,382.5C 163.737,383.791 163.404,384.791 162.5,385.5C 162.5,383.833 162.5,382.167 162.5,380.5C 163.022,378.781 164.022,377.448 165.5,376.5 Z"/></g>
<g><path style="opacity:1" fill="#66583c" d="M 291.5,398.5 C 289.485,399.924 287.152,400.59 284.5,400.5C 286.515,399.076 288.848,398.41 291.5,398.5 Z"/></g>
<g><path style="opacity:1" fill="#ae9768" d="M 229.5,399.5 C 244.745,401.263 260.079,401.929 275.5,401.5C 264.007,402.659 252.341,402.826 240.5,402C 236.688,401.205 233.021,400.371 229.5,399.5 Z"/></g>
<g><path style="opacity:1" fill="#a38d63" d="M 331.5,399.5 C 327.498,401.61 323.165,402.943 318.5,403.5C 322.502,401.39 326.835,400.057 331.5,399.5 Z"/></g>
<g><path style="opacity:1" fill="#edc978" d="M 356.5,407.5 C 356.155,410.198 354.822,412.198 352.5,413.5C 351.834,410.311 351.167,406.977 350.5,403.5C 349.614,404.325 349.281,405.325 349.5,406.5C 348.065,411.026 345.399,414.692 341.5,417.5C 340.614,416.675 340.281,415.675 340.5,414.5C 341.404,413.791 341.737,412.791 341.5,411.5C 337.833,411.5 334.167,411.5 330.5,411.5C 328.451,411.294 328.117,410.461 329.5,409C 336.792,406.535 342.792,402.368 347.5,396.5C 348.794,395.71 349.961,394.71 351,393.5C 351.156,389.866 352.156,386.533 354,383.5C 354.499,386.518 354.332,389.518 353.5,392.5C 353.667,393.5 353.833,394.5 354,395.5C 354.667,394.167 355.333,394.167 356,395.5C 356.499,399.486 356.666,403.486 356.5,407.5 Z"/></g>
<g><path style="opacity:1" fill="#d4b876" d="M 205.5,407.5 C 204.07,407.579 202.736,407.246 201.5,406.5C 200.41,407.391 200.41,408.391 201.5,409.5C 201.043,410.298 200.376,410.631 199.5,410.5C 199.53,409.503 199.03,408.836 198,408.5C 186.459,406.93 178.459,400.93 174,390.5C 173.333,387.833 173.333,385.167 174,382.5C 174.703,387.738 176.87,392.238 180.5,396C 186.503,399.113 192.836,401.447 199.5,403C 201.684,404.363 203.684,405.863 205.5,407.5 Z"/></g>
<g><path style="opacity:1" fill="#806b4a" d="M 238.5,407.5 C 232.71,407.208 227.043,407.875 221.5,409.5C 220.274,409.48 219.274,409.147 218.5,408.5C 223.126,407.627 227.792,406.96 232.5,406.5C 234.696,406.505 236.696,406.838 238.5,407.5 Z"/></g>
<g><path style="opacity:1" fill="#e4c276" d="M 176.5,402.5 C 180.525,406.182 185.192,408.849 190.5,410.5C 190.167,410.833 189.833,411.167 189.5,411.5C 185.635,412.806 181.802,412.806 178,411.5C 178.557,413.841 178.39,416.174 177.5,418.5C 174.035,415.375 171.368,411.708 169.5,407.5C 169.013,406.527 168.513,405.527 168,404.5C 167.204,407.039 167.371,409.372 168.5,411.5C 168.286,413.144 168.62,414.644 169.5,416C 165.443,414.77 162.776,411.936 161.5,407.5C 161.167,404.5 160.833,401.5 160.5,398.5C 160.316,393.893 160.983,389.56 162.5,385.5C 163.404,384.791 163.737,383.791 163.5,382.5C 164.5,382.5 165.5,382.5 166.5,382.5C 166.969,388.162 167.469,393.829 168,399.5C 168.249,398.376 168.749,397.376 169.5,396.5C 170.711,397.274 170.711,398.107 169.5,399C 171.97,399.989 174.303,401.155 176.5,402.5 Z"/></g>
<g><path style="opacity:1" fill="#694f32" d="M 169.5,407.5 C 168.566,408.568 168.232,409.901 168.5,411.5C 167.371,409.372 167.204,407.039 168,404.5C 168.513,405.527 169.013,406.527 169.5,407.5 Z"/></g>
<g><path style="opacity:1" fill="#393229" d="M 150.5,401.5 C 151.309,403.292 151.809,405.292 152,407.5C 152.278,406.584 152.778,405.918 153.5,405.5C 153.5,407.167 153.5,408.833 153.5,410.5C 152.5,410.5 151.5,410.5 150.5,410.5C 150.5,407.5 150.5,404.5 150.5,401.5 Z"/></g>
<g><path style="opacity:1" fill="#746249" d="M 236.5,411.5 C 236.5,411.833 236.5,412.167 236.5,412.5C 233.302,411.964 230.635,412.631 228.5,414.5C 227.596,413.791 227.263,412.791 227.5,411.5C 230.5,411.5 233.5,411.5 236.5,411.5 Z"/></g>
<g><path style="opacity:1" fill="#88714f" d="M 330.5,411.5 C 334.167,411.5 337.833,411.5 341.5,411.5C 341.737,412.791 341.404,413.791 340.5,414.5C 337.452,412.881 334.119,411.881 330.5,411.5 Z"/></g>
<g><path style="opacity:1" fill="#b79f6f" d="M 352.5,413.5 C 352.585,414.995 351.919,415.995 350.5,416.5C 350.225,413.047 349.891,409.713 349.5,406.5C 349.281,405.325 349.614,404.325 350.5,403.5C 351.167,406.977 351.834,410.311 352.5,413.5 Z"/></g>
<g><path style="opacity:1" fill="#e3c379" d="M 342.5,390.5 C 343.167,390.5 343.5,390.833 343.5,391.5C 342.552,395.888 340.219,399.388 336.5,402C 330.355,404.242 324.355,406.742 318.5,409.5C 326.634,412.452 330.134,418.119 329,426.5C 323.704,434.021 318.038,434.354 312,427.5C 310.698,424.625 309.865,421.625 309.5,418.5C 309.5,416.5 309.5,414.5 309.5,412.5C 307.076,412.192 304.743,412.526 302.5,413.5C 302.624,414.107 302.957,414.44 303.5,414.5C 310.745,422.256 310.079,429.09 301.5,435C 295.419,436.858 290.919,435.025 288,429.5C 286.751,423.749 287.584,418.416 290.5,413.5C 283.705,411.204 277.872,412.537 273,417.5C 271.849,421.829 272.682,425.662 275.5,429C 272.506,428.642 270.673,426.808 270,423.5C 269.333,421.167 269.333,418.833 270,416.5C 276.879,405.865 286.045,403.532 297.5,409.5C 302.712,407.98 308.045,407.147 313.5,407C 314.789,405.198 316.456,404.031 318.5,403.5C 323.165,402.943 327.498,401.61 331.5,399.5C 336.04,397.632 339.707,394.632 342.5,390.5 Z"/></g>
<g><path style="opacity:1" fill="#796740" d="M 309.5,418.5 C 308.549,417.081 308.216,415.415 308.5,413.5C 306.585,413.216 304.919,413.549 303.5,414.5C 302.957,414.44 302.624,414.107 302.5,413.5C 304.743,412.526 307.076,412.192 309.5,412.5C 309.5,414.5 309.5,416.5 309.5,418.5 Z"/></g>
<g><path style="opacity:1" fill="#dbc180" d="M 240.5,408.5 C 248.656,412.796 250.656,419.129 246.5,427.5C 246.396,424.735 246.229,421.735 246,418.5C 245.617,417.944 245.117,417.611 244.5,417.5C 242.47,414.818 239.803,413.151 236.5,412.5C 236.5,412.167 236.5,411.833 236.5,411.5C 237.833,411.5 239.167,411.5 240.5,411.5C 240.5,410.5 240.5,409.5 240.5,408.5 Z"/></g>
<g><path style="opacity:1" fill="#0f0c0a" d="M 295.5,415.5 C 299.986,417.325 302.653,420.658 303.5,425.5C 300.942,431.176 297.442,431.843 293,427.5C 291.888,423.019 292.721,419.019 295.5,415.5 Z"/></g>
<g><path style="opacity:1" fill="#14100d" d="M 314.5,414.5 C 318.23,415.056 321.397,416.722 324,419.5C 325.341,424.588 323.508,427.088 318.5,427C 314.961,423.613 313.628,419.447 314.5,414.5 Z"/></g>
<g><path style="opacity:1" fill="#363028" d="M 244.5,417.5 C 245.117,417.611 245.617,417.944 246,418.5C 246.229,421.735 246.396,424.735 246.5,427.5C 245.335,429.416 243.668,430.249 241.5,430C 242.025,429.308 242.692,428.808 243.5,428.5C 244.489,424.893 244.823,421.226 244.5,417.5 Z"/></g>
<g><path style="opacity:1" fill="#e9c97d" d="M 205.5,407.5 C 209.735,408.436 214.069,408.769 218.5,408.5C 219.274,409.147 220.274,409.48 221.5,409.5C 227.043,407.875 232.71,407.208 238.5,407.5C 238.842,408.338 239.508,408.672 240.5,408.5C 240.5,409.5 240.5,410.5 240.5,411.5C 239.167,411.5 237.833,411.5 236.5,411.5C 233.5,411.5 230.5,411.5 227.5,411.5C 227.263,412.791 227.596,413.791 228.5,414.5C 233.013,421.539 232.346,428.039 226.5,434C 214.612,437.453 209.446,432.953 211,420.5C 212.511,418.138 214.011,415.805 215.5,413.5C 213.393,412.532 211.059,412.198 208.5,412.5C 208.5,415.5 208.5,418.5 208.5,421.5C 207.369,429.805 202.702,433.305 194.5,432C 187.619,425.029 187.952,418.362 195.5,412C 196.745,411.209 198.078,410.709 199.5,410.5C 200.376,410.631 201.043,410.298 201.5,409.5C 200.41,408.391 200.41,407.391 201.5,406.5C 202.736,407.246 204.07,407.579 205.5,407.5 Z"/></g>
<g><path style="opacity:1" fill="#16120e" d="M 199.5,414.5 C 201.167,414.5 202.833,414.5 204.5,414.5C 204.649,417.607 204.149,420.607 203,423.5C 201.155,427.795 198.488,428.462 195,425.5C 194.333,423.5 194.333,421.5 195,419.5C 196.707,417.963 198.207,416.296 199.5,414.5 Z"/></g>
<g><path style="opacity:1" fill="#14100c" d="M 220.5,415.5 C 226.579,418.076 228.079,422.409 225,428.5C 217.478,432.325 214.478,429.992 216,421.5C 217.332,419.34 218.832,417.34 220.5,415.5 Z"/></g>
<g><path style="opacity:1" fill="#a88c5f" d="M 215.5,413.5 C 213.5,413.5 211.5,413.5 209.5,413.5C 209.806,416.385 209.473,419.052 208.5,421.5C 208.5,418.5 208.5,415.5 208.5,412.5C 211.059,412.198 213.393,412.532 215.5,413.5 Z"/></g>
</svg>
